<!DOCTYPE svg PUBLIC "-//W3C//DTD SVG 1.1//EN" "http://www.w3.org/Graphics/SVG/1.1/DTD/svg11.dtd">
<!-- Uploaded to: SVG Repo, www.svgrepo.com, Transformed by: SVG Repo Mixer Tools -->
<svg fill="#002C44" width="109px" height="109px" viewBox="0 0 32 32" version="1.1" xmlns="http://www.w3.org/2000/svg">
<g id="SVGRepo_bgCarrier" stroke-width="0"/>
<g id="SVGRepo_tracerCarrier" stroke-linecap="round" stroke-linejoin="round"/>
<g id="SVGRepo_iconCarrier"> <title>book-open</title> <path d="M30.527 5.467c-0.147-0.118-0.33-0.196-0.531-0.216l-0.004-0-3.242 0.033v-3.283c-0-0.208-0.085-0.395-0.221-0.531v0c-0.134-0.135-0.319-0.219-0.524-0.219-0.003 0-0.007 0-0.010 0h0c-0.296-0.024-0.64-0.038-0.988-0.038-3.501 0-6.678 1.386-9.012 3.64l0.004-0.004c-2.33-2.25-5.507-3.637-9.008-3.637-0.348 0-0.693 0.014-1.034 0.041l0.045-0.003c-0.206 0.006-0.393 0.088-0.533 0.219l0-0c-0.136 0.136-0.221 0.323-0.221 0.531 0 0 0 0 0 0v-0 3.283l-3.242-0.033c-0.003-0-0.007-0-0.011-0-0.205 0-0.39 0.083-0.524 0.217v0c-0.137 0.136-0.223 0.324-0.223 0.533 0 0 0 0 0 0v0 24c0 0.414 0.336 0.749 0.75 0.749 0.13 0 0.252-0.033 0.359-0.091l-0.004 0.002c1.904-1.129 4.196-1.797 6.645-1.797 2.443 0 4.731 0.665 6.693 1.823l-0.061-0.034c0.058 0.034 0.125 0.061 0.196 0.077l0.005 0.001c0.028 0.007 0.060 0.013 0.094 0.016l0.002 0h0.004l0.069 0.004 0.013-0.004c0.13-0.001 0.253-0.036 0.359-0.096l-0.004 0.002c1.901-1.124 4.189-1.788 6.632-1.788 2.449 0 4.742 0.667 6.707 1.83l-0.061-0.034c0.102 0.058 0.224 0.092 0.354 0.092 0.142 0 0.275-0.041 0.387-0.111l-0.003 0.002c0.22-0.133 0.365-0.371 0.365-0.642 0-0 0-0 0-0v0-24c0-0 0-0 0-0 0-0.208-0.085-0.397-0.223-0.533l-0-0zM6.75 2.766c0.166-0.009 0.36-0.014 0.556-0.014 3.142 0 5.969 1.346 7.937 3.494l0.007 0.008v21.837c-2.233-1.764-5.090-2.83-8.195-2.83-0.107 0-0.214 0.001-0.321 0.004l0.016-0zM2.75 28.793v-22.035l2.5 0.025v19.217c0 0.413 0.335 0.749 0.748 0.75h0c0.088-0.002 0.192-0.003 0.296-0.003 1.834 0 3.596 0.308 5.238 0.876l-0.112-0.034c-0.729-0.13-1.569-0.204-2.426-0.204-2.269 0-4.416 0.519-6.33 1.445l0.087-0.038zM16.75 6.253c1.975-2.155 4.803-3.502 7.945-3.502 0.195 0 0.39 0.005 0.582 0.015l-0.027-0.001v22.498c-0.091-0.002-0.198-0.003-0.305-0.003-3.105 0-5.962 1.066-8.223 2.851l0.028-0.021zM29.25 28.793c-1.831-0.877-3.978-1.397-6.244-1.414l-0.006-0c-0.855 0-1.691 0.077-2.503 0.224l0.085-0.013c1.529-0.534 3.291-0.843 5.126-0.843 0.103 0 0.207 0.001 0.309 0.003l-0.015-0c0.413-0.001 0.748-0.336 0.748-0.75 0-0 0-0 0-0v0-19.217l2.5-0.025z"/> </g>
</svg>