<!DOCTYPE svg PUBLIC "-//W3C//DTD SVG 1.1//EN" "http://www.w3.org/Graphics/SVG/1.1/DTD/svg11.dtd">
<!-- Uploaded to: SVG Repo, www.svgrepo.com, Transformed by: SVG Repo Mixer Tools -->
<svg version="1.1" id="GRADUATION" xmlns="http://www.w3.org/2000/svg" xmlns:xlink="http://www.w3.org/1999/xlink" width="109px" height="109px" viewBox="0 0 1800 1800" enable-background="new 0 0 1800 1800" xml:space="preserve" fill="#002C44" stroke="#002C44">
<g id="SVGRepo_bgCarrier" stroke-width="0"/>
<g id="SVGRepo_tracerCarrier" stroke-linecap="round" stroke-linejoin="round"/>
<g id="SVGRepo_iconCarrier"> <g> <path fill="#002C44" d="M1782.237,564.721L917.14,6.075c-10.442-6.742-23.85-6.738-34.283,0L17.763,564.721 c-9.009,5.818-14.453,15.813-14.453,26.541s5.443,20.723,14.453,26.541L316.79,810.904c-0.313,1.79-0.506,3.619-0.506,5.499 v365.474c0,70.584,64.633,134.248,181.99,179.271c107.807,41.356,250.473,64.136,401.725,64.136s293.923-22.779,401.729-64.136 c117.357-45.023,181.99-108.688,181.99-179.271V816.403c0-1.88-0.193-3.708-0.51-5.499l105.36-68.036v585.294 c-32.948,12.732-56.419,44.662-56.419,82.047c0,36.23,22.017,67.401,53.364,80.881l-61.275,269.287 c-2.134,9.371,0.114,19.205,6.108,26.72c5.994,7.511,15.084,11.883,24.696,11.883h130.237c0.021,0,0.052,0,0.088,0 c17.449,0,31.594-14.14,31.594-31.594c0-3.271-0.494-6.427-1.42-9.397l-60.732-266.898c31.348-13.479,53.362-44.65,53.362-80.881 c0-37.385-23.469-69.314-56.417-82.047v-626.1l130.483-84.26c9.01-5.818,14.453-15.813,14.453-26.541 S1791.247,570.539,1782.237,564.721z M1620.16,1435.033c-13.689,0-24.823-11.134-24.823-24.824 c0-13.685,11.134-24.824,24.823-24.824s24.824,11.14,24.824,24.824C1644.984,1423.899,1633.85,1435.033,1620.16,1435.033z M1594.631,1735.791l25.529-112.182l25.529,112.182H1594.631z M1420.529,1181.877c0,85.244-213.773,180.219-520.531,180.219 c-306.753,0-520.527-94.975-520.527-180.219V851.38l503.386,325.071c5.218,3.372,11.178,5.056,17.141,5.056 c5.959,0,11.923-1.684,17.142-5.056l503.39-325.071V1181.877z M899.998,1112.302L93.142,591.261L899.998,70.223l806.86,521.039 L899.998,1112.302z"/> <path fill="#002C44" d="M787.935,591.261c0,61.795,50.273,112.068,112.063,112.068c61.795,0,112.068-50.273,112.068-112.068 c0-61.792-50.273-112.063-112.068-112.063C838.208,479.198,787.935,529.469,787.935,591.261z M948.878,591.261 c0,26.953-21.927,48.88-48.88,48.88c-26.952,0-48.876-21.927-48.876-48.88c0-26.95,21.924-48.876,48.876-48.876 C926.951,542.385,948.878,564.311,948.878,591.261z"/> </g> </g>
</svg>