<!DOCTYPE svg PUBLIC "-//W3C//DTD SVG 1.1//EN" "http://www.w3.org/Graphics/SVG/1.1/DTD/svg11.dtd">
<!-- Uploaded to: SVG Repo, www.svgrepo.com, Transformed by: SVG Repo Mixer Tools -->
<svg fill="#002C44" height="800px" width="800px" version="1.1" id="Layer_1" xmlns="http://www.w3.org/2000/svg" xmlns:xlink="http://www.w3.org/1999/xlink" viewBox="0 0 504 504" xml:space="preserve">
<g id="SVGRepo_bgCarrier" stroke-width="0"/>
<g id="SVGRepo_tracerCarrier" stroke-linecap="round" stroke-linejoin="round"/>
<g id="SVGRepo_iconCarrier"> <g> <g> <path d="M252,0C113.048,0,0,113.048,0,252s113.048,252,252,252s252-113.048,252-252S390.952,0,252,0z M423.34,341.828 c-3.776-2.172-8.584-0.884-10.76,2.884s-0.888,8.584,2.884,10.76L428.516,363c-16.672,26.416-39.092,48.836-65.508,65.512 l-7.536-13.056c-2.172-3.768-6.988-5.06-10.756-2.884c-3.768,2.176-5.064,6.992-2.884,10.76l7.556,13.084 c-26.908,14.264-58.004,22.8-89.512,24.004v-42.972c0-4.348-3.524-7.876-7.876-7.876c-4.348,0-7.876,3.524-7.876,7.876v42.972 c-31.504-1.204-62.596-9.736-89.504-24.004l7.556-13.084c2.172-3.768,0.888-8.584-2.88-10.76s-8.584-0.884-10.76,2.884 L141,428.512C114.584,411.84,92.164,389.416,75.488,363l13.056-7.532c3.768-2.172,5.056-6.992,2.884-10.756 c-2.172-3.768-6.992-5.06-10.76-2.884l-13.084,7.552c-14.268-26.908-22.8-58-24.004-89.504h42.972 c4.348,0,7.876-3.528,7.876-7.876c0-4.348-3.524-7.876-7.876-7.876h-42.98c1.204-31.504,9.736-62.604,24.004-89.508l13.084,7.56 c1.24,0.716,2.592,1.056,3.928,1.056c2.724,0,5.368-1.416,6.832-3.94c2.172-3.764,0.884-8.584-2.884-10.756L75.48,141 c16.676-26.416,39.096-48.836,65.512-65.512l7.532,13.056c1.456,2.524,4.104,3.936,6.828,3.936c1.336,0,2.692-0.336,3.928-1.056 c3.768-2.176,5.06-6.992,2.884-10.76l-7.552-13.084c26.908-14.268,58-22.8,89.504-24.004v42.972c0,4.348,3.528,7.876,7.876,7.876 c4.352,0,7.876-3.524,7.876-7.876V43.572c31.508,1.204,62.604,9.736,89.512,24.004l-7.556,13.088 c-2.176,3.764-0.884,8.584,2.888,10.756c1.24,0.716,2.592,1.06,3.924,1.06c2.724,0,5.372-1.412,6.832-3.94L363,75.484 c26.416,16.676,48.836,39.1,65.512,65.512l-13.056,7.536c-3.768,2.172-5.06,6.992-2.884,10.756c1.456,2.528,4.104,3.94,6.828,3.94 c1.336,0,2.692-0.34,3.932-1.06l13.084-7.556c14.264,26.908,22.8,58.004,24.004,89.508h-42.972c-4.348,0-7.876,3.528-7.876,7.876 c0,4.348,3.536,7.88,7.884,7.88h42.972c-1.204,31.504-9.736,62.6-24.004,89.504L423.34,341.828z"/> </g> </g> <g> <g> <path d="M389.74,240.184H272.264c-2.056-3.94-4.512-6.396-8.448-8.452V114.264c0-6.48-5.34-11.748-11.816-11.748 s-11.816,5.268-11.816,11.748v117.472c-7.876,4.068-11.668,11.616-11.668,20.264c0,12.928,10.536,23.484,23.464,23.484 c8.648,0,16.22-3.792,20.284-11.668h117.472c6.476,0,11.748-5.336,11.748-11.816C401.484,245.52,396.216,240.184,389.74,240.184z"/> </g> </g> </g>
</svg>