<?xml version="1.0" encoding="utf-8"?>
<!-- Generator: Adobe Illustrator 27.3.1, SVG Export Plug-In . SVG Version: 6.00 Build 0)  -->
<svg version="1.1" id="Capa_1" xmlns="http://www.w3.org/2000/svg" xmlns:xlink="http://www.w3.org/1999/xlink" x="0px" y="0px"
	 viewBox="0 0 408 408" style="enable-background:new 0 0 408 408;" xml:space="preserve">
<style type="text/css">
	.st0{fill:none;stroke:#292D32;stroke-width:50;stroke-linecap:round;stroke-linejoin:round;stroke-miterlimit:133.3333;}
	.st1{fill:#231F20;stroke:#231F20;stroke-width:2;stroke-miterlimit:10;}
	.st2{fill:#004769;}
	.st3{fill:#02818D;}
	.st4{fill:#FFFFFF;}
	.st5{fill:url(#SVGID_1_);}
	.st6{fill:url(#SVGID_00000058591091741129612770000012811036685798580896_);}
	.st7{fill:url(#SVGID_00000049912914959855298130000006473285107379193737_);}
	.st8{fill:url(#SVGID_00000047028682401305422630000014326910787730722467_);}
	.st9{fill:url(#SVGID_00000118381100115921054590000001556483258869471891_);}
	.st10{fill:url(#SVGID_00000115486866377451108590000017402420682906331832_);}
	.st11{fill:url(#SVGID_00000004530478741034105200000010526721016521639046_);}
	.st12{fill:url(#SVGID_00000101812695578106394200000002621701939212707513_);}
	.st13{fill:url(#SVGID_00000114758927586280001860000002949044964814675129_);}
	.st14{fill:url(#SVGID_00000096742718189699663980000017830328692553461917_);}
	.st15{fill:url(#SVGID_00000171689322843754698700000001574857413194975872_);}
	.st16{fill:url(#SVGID_00000115505573181254184330000000244679182712433849_);}
	.st17{fill:url(#SVGID_00000142880443508690894300000004601473600328289457_);}
	.st18{fill:url(#SVGID_00000173139965202472966060000016788904989884619430_);}
	.st19{fill:url(#SVGID_00000168828661100044523790000014728385116654473146_);}
	.st20{fill:url(#SVGID_00000153666563368311311620000011025925402520749713_);}
	.st21{fill:url(#SVGID_00000078750801807641178460000015028368354488203960_);}
	.st22{fill:url(#SVGID_00000019671614431439990260000005534961410044058044_);}
	.st23{fill:url(#SVGID_00000030454419960205514010000013767201023928634806_);}
	.st24{fill:url(#SVGID_00000006693577116510070960000014064889204929699742_);}
	.st25{fill:url(#SVGID_00000036932583590748620740000007134278746068302985_);}
	.st26{fill:url(#SVGID_00000177461930553487121030000005537097385389704627_);}
	.st27{fill:url(#SVGID_00000057105957302758247540000012042823437204971172_);}
	.st28{fill:url(#SVGID_00000070800388875495756880000005371624743271586447_);}
	.st29{fill:url(#SVGID_00000043450122653867275970000007385387399389302440_);}
	.st30{fill:url(#SVGID_00000081645740454865741860000009361285811216801718_);}
	.st31{fill:url(#SVGID_00000024002332115529537300000016306449922665135293_);}
	.st32{fill:url(#SVGID_00000127032418250024093200000012054950343084352642_);}
	.st33{fill:url(#SVGID_00000008827159764292176690000002926325368564128660_);}
	.st34{fill:url(#SVGID_00000147933892042198945320000001193408075739786634_);}
</style>
<g>
	<g>
		<g>
			<g>
				<path class="st2" d="M275.59,182.53h-92.38c-2,0-3.76,1.48-3.94,3.48c-0.2,2.26,1.6,4.16,3.84,4.16h92.56
					c2.25,0,4.04-1.9,3.84-4.16C279.35,184.01,277.59,182.53,275.59,182.53z"/>
				<path class="st2" d="M198.55,218.28c-2.13,0-3.85,1.74-3.82,3.88c0.03,2.11,1.85,3.76,3.96,3.76h0.23
					c2.11,0,3.92-1.65,3.96-3.76c0.03-2.14-1.69-3.88-3.82-3.88L198.55,218.28L198.55,218.28z"/>
				<path class="st2" d="M300.39,146.34v-39.9c0-13.5-10.94-24.44-24.44-24.44H131.72c-13.5,0-24.44,10.94-24.44,24.44v102.08
					c-14.29,0.67-25.71,12.39-25.71,26.71c0,14.74,12.11,26.74,27,26.74h70.52v13.23c0,1.71,0.81,3.32,2.22,4.42c0,0,0,0,0,0
					c2.4,1.88,6.02,1.88,8.42,0l20-15.63c1.89-1.48,2.97-3.61,2.97-5.84c0-2.23-1.08-4.36-2.97-5.84l-20-15.63
					c-2.4-1.88-6.02-1.88-8.42,0c-1.41,1.1-2.22,2.71-2.22,4.42v13.23h-64.17V106.36c0-9.24,7.49-16.73,16.73-16.73h144.08
					c9.24,0,16.73,7.49,16.73,16.73v40.11h-64.17v-13.23c0-1.71-0.81-3.32-2.22-4.42c-2.4-1.88-6.01-1.88-8.41,0l-19.97,15.63
					c-1.89,1.48-2.97,3.61-2.97,5.84s1.08,4.36,2.97,5.84l19.97,15.63c2.4,1.88,6.01,1.88,8.4,0c1.41-1.1,2.22-2.71,2.22-4.42
					v-13.23h67.94c0.03,0,0.06,0,0.08,0h2.68c10.52,0,19.08,8.66,19.08,19.3c0,10.27-7.97,18.69-17.99,19.27v-25.1
					c0-2-1.48-3.76-3.48-3.94c-2.26-0.2-4.16,1.6-4.16,3.85v134.69c0,9.18-7.44,16.62-16.62,16.62h-158.2
					c-1.5,0-2.71-1.21-2.71-2.71v-41.14c0-0.16-0.06-0.32-0.17-0.44c-3.34-3.57-7.47-1.25-7.47,2.02v45.95
					c0,2.19,1.77,3.96,3.96,3.96h164.42c0,0,24.44-10.98,24.42-24.45V200.33c14.4-0.58,25.92-12.47,25.92-27
					C326,158.81,300.39,146.34,300.39,146.34z M107.28,254.34c-10.03-0.67-17.99-9.05-17.99-19.26c0-10.21,7.96-18.59,17.99-19.26
					V254.34z M186.72,244.08l17.94,14.17l-17.94,14.17V244.08z M220.33,164.34l-17.94-14.17l17.94-14.17V164.34z"/>
				<path class="st2" d="M275.44,254.33h-45.66c-2.11,0-3.92,1.65-3.96,3.76c-0.03,2.14,1.69,3.88,3.82,3.88h45.66
					c2.11,0,3.92-1.65,3.96-3.76C279.29,256.08,277.57,254.33,275.44,254.33z"/>
				<path class="st2" d="M131.96,225.92h50.75c2.11,0,3.92-1.65,3.96-3.76c0.03-2.14-1.69-3.88-3.82-3.88H132.1
					c-2.11,0-3.92,1.65-3.96,3.76C128.11,224.17,129.83,225.92,131.96,225.92z"/>
				<path class="st2" d="M275.44,218.28h-45.66c-2.11,0-3.92,1.65-3.96,3.76c-0.03,2.14,1.69,3.88,3.82,3.88h45.66
					c2.11,0,3.92-1.65,3.96-3.76C279.29,220.02,277.57,218.28,275.44,218.28z"/>
				<path class="st2" d="M177.6,146.47h-45.52c-2.11,0-3.92,1.65-3.96,3.76c-0.03,2.14,1.69,3.88,3.82,3.88h45.8
					c2.13,0,3.85-1.74,3.82-3.88C181.52,148.12,179.71,146.47,177.6,146.47z"/>
				<path class="st2" d="M213.46,225.92h0.37c2.11,0,3.92-1.65,3.96-3.76c0.03-2.14-1.69-3.88-3.82-3.88h-0.37
					c-2.11,0-3.92,1.65-3.96,3.76C209.61,224.17,211.33,225.92,213.46,225.92z"/>
				<path class="st2" d="M167.18,182.53c-2.13,0-3.85,1.74-3.82,3.88c0.03,2.11,1.85,3.76,3.96,3.76h0.23
					c2.11,0,3.92-1.65,3.96-3.76c0.03-2.14-1.69-3.88-3.82-3.88H167.18z"/>
				<path class="st2" d="M131.8,190.17h20.22c2.11,0,3.92-1.65,3.96-3.76c0.03-2.14-1.69-3.88-3.82-3.88h-20.22
					c-2.11,0-3.92,1.65-3.96,3.76C127.95,188.42,129.67,190.17,131.8,190.17z"/>
			</g>
		</g>
	</g>
</g>
</svg>
