<svg width="48" height="48" viewBox="0 0 48 48" fill="none" xmlns="http://www.w3.org/2000/svg">
<g clip-path="url(#clip0_721_464)">
<path d="M14.8333 37.3082H12.3333C10.4924 37.3082 9 35.8005 9 33.9406V10.3676C9 8.50772 10.4924 7 12.3333 7H35.6667C37.5076 7 39 8.50772 39 10.3676V33.9406C39 35.8005 37.5076 37.3082 35.6667 37.3082H33.1667M24 35.6244C26.7614 35.6244 29 33.3628 29 30.573C29 27.7832 26.7614 25.5217 24 25.5217C21.2386 25.5217 19 27.7832 19 30.573C19 33.3628 21.2386 35.6244 24 35.6244ZM24 35.6244L24.0357 35.6241L18.7145 41L14.0004 36.2375L19.0328 31.1535M24 35.6244L29.3214 41L34.0354 36.2375L29.0031 31.1535M19 13.7352H29M15.6667 19.6284H32.3333" stroke="#004769" stroke-width="1.6" stroke-linecap="round" stroke-linejoin="round"/>
</g>
<defs>
<clipPath id="clip0_721_464">
<rect width="48" height="48" fill="white"/>
</clipPath>
</defs>
</svg>
