<?xml version="1.0" encoding="utf-8"?>
<!-- Generator: Adobe Illustrator 27.3.1, SVG Export Plug-In . SVG Version: 6.00 Build 0)  -->
<svg version="1.1" id="Capa_1" xmlns="http://www.w3.org/2000/svg" xmlns:xlink="http://www.w3.org/1999/xlink" x="0px" y="0px"
	 viewBox="0 0 408 408" style="enable-background:new 0 0 408 408;" xml:space="preserve">
<style type="text/css">
	.st0{fill:none;stroke:#292D32;stroke-width:50;stroke-linecap:round;stroke-linejoin:round;stroke-miterlimit:133.3333;}
	.st1{fill:#231F20;stroke:#231F20;stroke-width:2;stroke-miterlimit:10;}
	.st2{fill:#004769;}
	.st3{fill:#00A7B5;}
	.st4{fill:#FFFFFF;}
	.st5{fill:url(#SVGID_1_);}
	.st6{fill:url(#SVGID_00000153707517467469651420000014131017463784170911_);}
	.st7{fill:url(#SVGID_00000165947674657445627550000008504272150180621735_);}
	.st8{fill:url(#SVGID_00000099653936029408995480000016717496446579515047_);}
	.st9{fill:url(#SVGID_00000005951036028373497830000003510248469913579184_);}
	.st10{fill:url(#SVGID_00000047756007735928188720000014498225075481245877_);}
	.st11{fill:url(#SVGID_00000139983325942603919260000001526387856814440616_);}
	.st12{fill:url(#SVGID_00000166643139009288728160000003572848941519576228_);}
	.st13{fill:url(#SVGID_00000170988850488796162600000013207523915015378341_);}
	.st14{fill:url(#SVGID_00000083068441825088471690000016010803294533970575_);}
	.st15{fill:url(#SVGID_00000177447779639531624200000010652185871803482523_);}
	.st16{fill:url(#SVGID_00000053512283392927046850000016816087617276267431_);}
	.st17{fill:url(#SVGID_00000000217666272939733820000010354002888776639385_);}
	.st18{fill:url(#SVGID_00000134214580310432982260000011398240824169737142_);}
	.st19{fill:url(#SVGID_00000164497349264542641990000012367430658339658640_);}
	.st20{fill:url(#SVGID_00000125575594880400531000000011999762039570039944_);}
	.st21{fill:url(#SVGID_00000183230140125168917870000013684483417712504254_);}
	.st22{fill:url(#SVGID_00000137827009359163776120000004005631507308901034_);}
	.st23{fill:url(#SVGID_00000127735996009475997320000001858039338054571687_);}
	.st24{fill:url(#SVGID_00000096752267174657959710000015140515289297774495_);}
	.st25{fill:url(#SVGID_00000093864655312961150810000016917745466579001270_);}
	.st26{fill:url(#SVGID_00000150092225163358648920000000544367208200626305_);}
	.st27{fill:url(#SVGID_00000034802491644387669700000004025350680304632970_);}
	.st28{fill:url(#SVGID_00000057842921210947088310000003748907936474265739_);}
	.st29{fill:url(#SVGID_00000063596986271546134140000010835528376726790588_);}
	.st30{fill:url(#SVGID_00000033369228343327924800000002569281184278208412_);}
	.st31{fill:url(#SVGID_00000058551618659836474770000003905116557017909921_);}
	.st32{fill:url(#SVGID_00000127035318218989978720000012510428208372512942_);}
	.st33{fill:url(#SVGID_00000064311720870774772770000010281195937787418003_);}
	.st34{fill:url(#SVGID_00000130616850373259941410000012386651528837007034_);}
</style>
<g>
	<g>
		<g>
			<g>
				<path class="st2" d="M288.21,108.45v0.46c0,2.07,1.37,3.94,3.39,4.42c2.95,0.7,5.58-1.52,5.58-4.35v-0.6
					c0-2.83-2.63-5.05-5.58-4.35C289.58,104.5,288.21,106.37,288.21,108.45z"/>
				<path class="st2" d="M306.14,108.45v0.46c0,2.07,1.37,3.95,3.39,4.42c2.95,0.7,5.58-1.52,5.58-4.35v-0.6
					c0-2.83-2.63-5.05-5.58-4.35C307.52,104.5,306.14,106.37,306.14,108.45z"/>
				<path class="st2" d="M316.48,86.51H179.33v-1.27c0-8.97-7.27-16.23-16.23-16.23h-47.38c-8.97,0-16.23,7.27-16.23,16.23v1.27
					h-7.4c-15.49,0-28.04,12.55-28.04,28.04v177.05c0,15.49,12.55,28.04,28.04,28.04h89.19c-2.18-2.4-3.77-5.18-5.36-8.08
					c-0.08-0.15-0.15-0.31-0.19-0.46H92.2c-10.57,0-19.18-8.61-19.18-19.2V130.91H335.6v160.54h0c0,10.59-8.62,19.21-19.21,19.21
					h-10.15c-1.86,3.31-4.02,6.32-6.63,8.97h16.92c15.49,0,28.04-12.55,28.04-28.04V114.54C344.57,99.08,331.97,86.51,316.48,86.51z
					 M99.49,121.94H73.02v-7.29c0-10.6,8.59-19.18,19.18-19.18h7.29V121.94z M170.37,121.94h-61.91V84.92c0-4.08,3.3-7.38,7.38-7.38
					h47.15c4.08,0,7.38,3.3,7.38,7.38V121.94z M335.6,121.94H179.33V95.47h137.09c10.6,0,19.18,8.59,19.18,19.18V121.94z"/>
				<path class="st2" d="M97.06,160.37h41.78c2.07,0,3.95-1.37,4.42-3.39c0.7-2.95-1.52-5.58-4.35-5.58H97.13
					c-2.07,0-3.94,1.37-4.42,3.39C92.01,157.74,94.23,160.37,97.06,160.37z"/>
				<path class="st2" d="M97.06,194.1h41.78c2.07,0,3.95-1.37,4.42-3.39c0.7-2.95-1.52-5.58-4.35-5.58H97.13
					c-2.07,0-3.94,1.37-4.42,3.39C92.01,191.47,94.23,194.1,97.06,194.1z"/>
				<path class="st2" d="M97.06,229.54h41.78c2.07,0,3.95-1.37,4.42-3.39c0.7-2.95-1.52-5.58-4.35-5.58H97.13
					c-2.07,0-3.94,1.37-4.42,3.39C92.01,226.91,94.23,229.54,97.06,229.54z"/>
				<path class="st2" d="M270.7,108.45v0.46c0,2.07,1.37,3.95,3.39,4.42c2.95,0.7,5.58-1.52,5.58-4.35v-0.6
					c0-2.83-2.63-5.05-5.58-4.35C272.08,104.5,270.7,106.38,270.7,108.45z"/>
			</g>
		</g>
	</g>
	<g>
		<path class="st2" d="M221.35,267.75l8.53,7.97l-1.95,12.04c-0.17,1.03,0.28,2.05,1.13,2.64s1.97,0.62,2.87,0.1l10.51-6.19
			l10.52,5.06c0.9,0.43,1.98,0.33,2.78-0.28s1.19-1.61,1.02-2.6l-2.08-11.89l8.55-8.96c0.71-0.74,0.93-1.83,0.57-2.79
			s-1.24-1.63-2.26-1.73l-11.7-1.11l-5.28-10.5c-0.21-0.41-0.52-0.76-0.89-1.01c-0.45-0.31-0.99-0.47-1.55-0.47
			c-1.02,0.02-1.95,0.61-2.39,1.54l-5.25,11.22l-11.83,2.38c-0.99,0.2-1.78,0.93-2.05,1.9S220.61,267.06,221.35,267.75z
			 M236.86,265.78c0.84-0.17,1.54-0.72,1.9-1.49l3.49-7.44l3.47,6.9c0.21,0.41,0.51,0.76,0.88,1.01c0.37,0.25,0.8,0.41,1.26,0.46
			l7.68,0.73l-5.67,5.95c-0.59,0.61-0.85,1.47-0.7,2.31l1.42,8.09l-7.11-3.42c-0.8-0.39-1.75-0.35-2.52,0.1l-6.83,4.02l1.27-7.82
			c0.14-0.88-0.16-1.78-0.82-2.38l-5.77-5.39L236.86,265.78z"/>
		<path class="st2" d="M241.14,320.94c26.58,0,48.21-21.63,48.21-48.21s-21.63-48.21-48.21-48.21s-48.21,21.63-48.21,48.21
			C192.93,299.31,214.56,320.94,241.14,320.94z M241.14,229.88c23.63,0,42.85,19.22,42.85,42.85s-19.22,42.85-42.85,42.85
			s-42.85-19.22-42.85-42.85S217.51,229.88,241.14,229.88z"/>
		<path class="st2" d="M241.14,339c36.54,0,66.27-29.73,66.27-66.27s-29.73-66.27-66.27-66.27s-66.27,29.73-66.27,66.27
			S204.6,339,241.14,339z M241.14,213.82c32.48,0,58.91,26.43,58.91,58.91s-26.43,58.91-58.91,58.91s-58.91-26.43-58.91-58.91
			S208.66,213.82,241.14,213.82z"/>
	</g>
</g>
</svg>
