<?xml version="1.0" encoding="UTF-8"?>
<svg width="48px" height="48px" viewBox="0 0 48 48" version="1.1" xmlns="http://www.w3.org/2000/svg" xmlns:xlink="http://www.w3.org/1999/xlink">
    <!-- Generator: Sketch 55.2 (78181) - https://sketchapp.com -->
    <title>menu - icono curso corto - tecnologias</title>
    <desc>Created with Sketch.</desc>
    <g id="menu---icono-curso-corto---tecnologias" stroke="none" stroke-width="1" fill="none" fill-rule="evenodd">
        <g id="icono-curso-tecnología" transform="translate(4.000000, 8.000000)">
            <path d="M2,24.7 C1.28202983,24.7 0.7,25.2820298 0.7,26 L0.7,28 C0.7,29.8225397 2.17746033,31.3 4,31.3 L36,31.3 C37.8225397,31.3 39.3,29.8225397 39.3,28 L39.3,26 C39.3,25.2820298 38.7179702,24.7 38,24.7 L2,24.7 Z" id="Rectangle" stroke="#004165" stroke-width="1.4"></path>
            <circle id="Oval" fill="#009AA6" cx="5" cy="28" r="1"></circle>
            <path d="M8,28 L9.85144043,28" id="Path-26" stroke="#009AA6" stroke-width="1.4" stroke-linecap="round"></path>
            <path d="M11.9257202,28 L13.7771606,28" id="Path-26-Copy" stroke="#009AA6" stroke-width="1.4" stroke-linecap="round"></path>
            <path d="M2,23.996 L2,4 C2,1.790861 3.790861,0 6,0 L27.2779762,0 M30.7822486,0 L34,0 C36.209139,0 38,1.790861 38,4 L38,23.996" id="Shape" stroke="#004165" stroke-width="1.4" stroke-linecap="round" stroke-linejoin="round"></path>
            <g id="Group" transform="translate(20.000000, 9.500000) scale(-1, 1) rotate(180.000000) translate(-20.000000, -9.500000) translate(15.000000, 8.000000)">
                <path d="M8.5,3 C9.32842712,3 10,2.32842712 10,1.5 C10,0.671572875 9.32842712,0 8.5,0 C7.67157288,0 7,0.671572875 7,1.5 C7,2.32842712 7.67157288,3 8.5,3 Z" id="Oval" fill="#009AA6"></path>
                <path d="M0.198506895,1.45 L7.4922999,1.45" id="Path" stroke="#009AA6" stroke-width="1.4" stroke-linecap="round" stroke-linejoin="round"></path>
            </g>
            <g id="Group-Copy-2" transform="translate(20.000000, 17.500000) scale(-1, 1) rotate(180.000000) translate(-20.000000, -17.500000) translate(15.000000, 16.000000)">
                <path d="M8.5,3 C9.32842712,3 10,2.32842712 10,1.5 C10,0.671572875 9.32842712,0 8.5,0 C7.67157288,0 7,0.671572875 7,1.5 C7,2.32842712 7.67157288,3 8.5,3 Z" id="Oval" fill="#009AA6"></path>
                <path d="M0.198506895,1.45 L7.4922999,1.45" id="Path" stroke="#009AA6" stroke-width="1.4" stroke-linecap="round" stroke-linejoin="round"></path>
            </g>
            <g id="Group-Copy" transform="translate(20.000000, 13.500000) rotate(180.000000) translate(-20.000000, -13.500000) translate(15.000000, 12.000000)">
                <path d="M8.5,3 C9.32842712,3 10,2.32842712 10,1.5 C10,0.671572875 9.32842712,0 8.5,0 C7.67157288,0 7,0.671572875 7,1.5 C7,2.32842712 7.67157288,3 8.5,3 Z" id="Oval" fill="#009AA6"></path>
                <path d="M0.198506895,1.45 L7.4922999,1.45" id="Path" stroke="#009AA6" stroke-width="1.4" stroke-linecap="round" stroke-linejoin="round"></path>
            </g>
        </g>
    </g>
</svg>