<?xml version="1.0" encoding="UTF-8"?>
<svg width="48px" height="48px" viewBox="0 0 48 48" version="1.1" xmlns="http://www.w3.org/2000/svg" xmlns:xlink="http://www.w3.org/1999/xlink">
    <!-- Generator: Sketch 55.2 (78181) - https://sketchapp.com -->
    <title>menu - icono curso corto - gestion</title>
    <desc>Created with Sketch.</desc>
    <g id="menu---icono-curso-corto---gestion" stroke="none" stroke-width="1" fill="none" fill-rule="evenodd">
        <g id="icono-curso/gestion-copy" transform="translate(9.000000, 5.000000)">
            <circle id="Oval" fill="#009AA6" cx="4" cy="35" r="1"></circle>
            <polyline id="Path-20" stroke="#009AA6" stroke-width="1.4" stroke-linecap="round" stroke-linejoin="round" points="7 37.3632812 7 31.1430664 10.8955078 31.1430664 10.8955078 37.3632812"></polyline>
            <polyline id="Path-20-Copy" stroke="#009AA6" stroke-width="1.4" stroke-linecap="round" stroke-linejoin="round" points="14 37.3632812 14 24.3632812 17.8955078 24.3632812 17.8955078 37.3632812"></polyline>
            <polyline id="Path-20-Copy-2" stroke="#009AA6" stroke-width="1.4" stroke-linecap="round" stroke-linejoin="round" points="21 37.3632812 21 19.3632812 24.8955078 19.3632812 24.8955078 37.3632812"></polyline>
            <path d="M21.37146,38 C18.4222114,38 12.826142,38 3.75,38 C1.67893219,38 0,36.3434536 0,34.3 L0,4.7 C0,2.65654643 1.67893219,1 3.75,1 L24.5610809,1 L25.4294248,1 C25.9552081,1 26.4598436,1.20704572 26.8341153,1.57632713 L29.4046906,4.11262802 C29.7855841,4.48844298 30,5.00121512 30,5.53630089 L30,6.6242981 L30,34.3 C30,36.3434536 28.3210678,38 26.25,38 C25.3421224,38 25.2014974,38 24.7475586,38" id="Path" stroke="#004165" stroke-width="1.4" stroke-linecap="round" stroke-linejoin="round"></path>
            <path d="M10,7 C6.13400675,7 3,10.1340068 3,14 C3,17.8659932 6.13400675,21 10,21 C13.8659932,21 17,17.8659932 17,14 L10,14 L10,7 Z" id="Combined-Shape" stroke="#004165" stroke-width="1.4"></path>
            <path d="M12,5 C15.8659932,5 19,8.13400675 19,12 L12,12 L12,5 Z" id="Combined-Shape" stroke="#004165" stroke-width="1.4"></path>
            <path d="M24.9766846,0.651123047 L24.9766846,3.96826172 C24.9766846,5.07283122 25.8721151,5.96826172 26.9766846,5.96826172 L30.4200439,5.96826172" id="Path-19" stroke="#004165" stroke-width="1.4"></path>
        </g>
    </g>
</svg>