<?xml version="1.0" encoding="UTF-8"?>
<svg width="48px" height="48px" viewBox="0 0 48 48" version="1.1" xmlns="http://www.w3.org/2000/svg" xmlns:xlink="http://www.w3.org/1999/xlink">
    <!-- Generator: Sketch 55.2 (78181) - https://sketchapp.com -->
    <title>menu - icono curso corto - ingenieria</title>
    <desc>Created with Sketch.</desc>
    <g id="menu---icono-curso-corto---ingenieria" stroke="none" stroke-width="1" fill="none" fill-rule="evenodd">
        <g id="icono-curso/-ingenieria" transform="translate(4.000000, 6.000000)">
            <path d="M13.778,29.7697754 L3,29.7697754 C3,29.6799777 3.00064036,25.4700225 3.00191668,25.3008413 C3.00862166,24.4120696 3.03287778,20.435209 3.0740468,19.9744104 C3.19482032,18.6226105 3.4611466,17.3136983 3.85691202,16.064104 C5.67706561,10.3171303 10.2350463,5.82481784 15.9633694,4.18545482 L15.8563416,2.37419811 L15.8537165,2.32977244 C15.7820451,1.11686169 16.7072025,0.0755021511 17.9201132,0.00383080959 C17.9633236,0.00127749265 18.0065999,1.77635684e-14 18.0498857,1.77635684e-14 L23.5056699,1.77635684e-14 C24.7206963,1.77635684e-14 25.7056699,0.98497355 25.7056699,2.2 C25.7056699,2.24328575 25.7043924,2.28656207 25.7018391,2.32977244 L25.5921861,4.18545482 C32.5256407,6.16970898 37.7445171,12.3335986 38.4692954,19.8429819 C38.4908641,20.0664535 38.5084528,21.0384423 38.5219883,22.1070935 C38.5373762,23.3219987 38.5475256,24.6618349 38.5523288,25.1688121 C38.5544767,25.3955332 38.5555556,29.653222 38.5555556,29.7697754 L27.778,29.7697754" id="Path" stroke="#004165" stroke-width="1.54"></path>
            <path d="M25.1210338,12.2248094 L24.8316289,14.3998847 C24.7980145,14.7367749 24.3163308,15 23.7334596,15 L18.0051631,15 C17.4222919,15 16.9406082,14.7367749 16.9069939,14.3998847 L16.0178223,4.78442383 M25.5475606,4.78442383 L25.3565634,8.5" id="Shape" stroke="#004165" stroke-width="1.54" stroke-linecap="round" stroke-linejoin="round"></path>
            <circle id="Oval" fill="#009AA6" cx="20.5" cy="9.5" r="1"></circle>
            <circle id="Oval" stroke="#009AA6" stroke-width="1.4" cx="21" cy="28" r="3"></circle>
            <path d="M2.02328825,29.839035 L1,29.839035 C0.44771525,29.839035 0,30.2867503 0,30.839035 L0,32.8537975 C0,33.3979292 0.441105878,33.839035 0.985237555,33.839035 L16.4662337,33.839035 M23.4941891,33.839035 L40,33.839035 C40.5522847,33.839035 41,33.3913198 41,32.839035 L41,30.839035 C41,30.2867503 40.5522847,29.839035 40,29.839035 L38.4406558,29.839035" id="Shape" stroke="#004165" stroke-width="1.4" stroke-linecap="square"></path>
            <path d="M14.3134996,26.8782315 L13.181859,25.9769195 C13.0782179,25.8943729 13.0529322,25.7472385 13.123069,25.6348275 L15.056853,22.5354752 C15.12945,22.4191212 15.2797537,22.3788623 15.4007896,22.4433516 L16.9816898,23.2856736 L18.9663875,22.0434583 L18.9663875,20.2608277 C18.9663875,20.1167765 19.083164,20 19.2272152,20 L23.0631127,20 C23.2071639,20 23.3239404,20.1167765 23.3239404,20.2608277 L23.3239404,22.0434583 L25.2199414,23.2856736 L26.9188191,22.4418881 C27.0454994,22.3789695 27.1992434,22.4284874 27.2653909,22.553512 L28.8901717,25.6244899 C28.9526018,25.7424883 28.9158588,25.8885787 28.8050332,25.9630018 L27.5539809,26.8031248 L27.5539809,29.2935058 L28.8493239,30.4859462 C28.9377712,30.5673673 28.959112,30.6986945 28.9009968,30.8039321 L27.264818,33.7668001 C27.1982924,33.8872677 27.0496195,33.935325 26.9251678,33.8765892 L25.2199414,33.0717959 L23.3239404,34.2424123 L23.3239404,35.7391723 C23.3239404,35.8832235 23.2071639,36 23.0631127,36 L19.4336436,36 C19.3032056,36 19.1928221,35.9036417 19.1752056,35.7743988 L18.9663875,34.2424123 L16.9816898,33.0717959 L15.4092168,33.8679355 C15.2843838,33.9311382 15.1319186,33.8845816 15.0636867,33.7624248 L13.4270705,30.8323609 C13.3613434,30.7146884 13.3960981,30.5663183 13.507248,30.490078 L14.6330724,29.7178494 L14.6330724,27.5413081 C14.6330724,27.2831518 14.5154336,27.0390648 14.3134996,26.8782315 Z" id="Path" stroke="#009AA6" stroke-width="1.4" stroke-linecap="round" stroke-linejoin="round"></path>
        </g>
    </g>
</svg>