<?xml version="1.0" encoding="UTF-8"?>
<svg xmlns="http://www.w3.org/2000/svg" xmlns:xlink="http://www.w3.org/1999/xlink" width="200px" height="200px" viewBox="0 0 200 200" version="1.1">
<defs>
<filter id="alpha" filterUnits="objectBoundingBox" x="0%" y="0%" width="100%" height="100%">
  <feColorMatrix type="matrix" in="SourceGraphic" values="0 0 0 0 1 0 0 0 0 1 0 0 0 0 1 0 0 0 1 0"/>
</filter>
<mask id="mask0">
  <g filter="url(#alpha)">
<rect x="0" y="0" width="200" height="200" style="fill:rgb(0%,0%,0%);fill-opacity:0.941176;stroke:none;"/>
  </g>
</mask>
<clipPath id="clip1">
  <rect x="0" y="0" width="200" height="200"/>
</clipPath>
<g id="surface5" clip-path="url(#clip1)">
<path style=" stroke:none;fill-rule:evenodd;fill:rgb(99.607843%,100%,99.607843%);fill-opacity:1;" d="M 121.910156 95 C 127.441406 95.960938 129.289062 99.113281 127.453125 104.453125 C 126.640625 105.753906 125.519531 106.632812 124.089844 107.089844 C 123.796875 107.222656 123.523438 107.191406 123.273438 107 C 123.109375 107.21875 122.898438 107.371094 122.636719 107.453125 C 120.730469 107.679688 118.851562 107.679688 117 107.453125 C 112.753906 106.488281 111.027344 103.851562 111.816406 99.546875 C 112.558594 97.171875 114.164062 95.746094 116.636719 95.273438 C 118.425781 95.242188 120.183594 95.152344 121.910156 95 Z M 118.089844 99.183594 C 119.304688 99.152344 120.515625 99.183594 121.726562 99.273438 C 122.671875 99.667969 123.15625 100.394531 123.183594 101.453125 C 123.121094 101.9375 122.972656 102.394531 122.726562 102.816406 C 122.113281 103.109375 121.535156 103.476562 121 103.910156 C 120.101562 103.765625 119.191406 103.675781 118.273438 103.636719 C 117.769531 103.371094 117.316406 103.035156 116.910156 102.636719 C 116.789062 101.726562 116.789062 100.816406 116.910156 99.910156 C 117.351562 99.714844 117.746094 99.472656 118.089844 99.183594 Z M 118.089844 99.183594 "/>
</g>
<mask id="mask1">
  <g filter="url(#alpha)">
<rect x="0" y="0" width="200" height="200" style="fill:rgb(0%,0%,0%);fill-opacity:0.996078;stroke:none;"/>
  </g>
</mask>
<clipPath id="clip2">
  <rect x="0" y="0" width="200" height="200"/>
</clipPath>
<g id="surface8" clip-path="url(#clip2)">
<path style=" stroke:none;fill-rule:evenodd;fill:rgb(99.607843%,100%,99.607843%);fill-opacity:1;" d="M 24.636719 95.183594 C 27.605469 95.152344 30.578125 95.183594 33.546875 95.273438 C 33.789062 96.058594 33.789062 96.847656 33.546875 97.636719 C 32.457031 97.726562 31.367188 97.757812 30.273438 97.726562 C 30.222656 98.050781 30.28125 98.355469 30.453125 98.636719 C 31.828125 99.15625 32.949219 100.003906 33.816406 101.183594 C 33.996094 101.410156 34.058594 101.652344 34 101.910156 C 33.289062 102.460938 32.53125 102.945312 31.726562 103.363281 C 31.261719 102.972656 30.835938 102.550781 30.453125 102.089844 C 30.304688 103.175781 30.210938 104.269531 30.183594 105.363281 C 30.089844 105.453125 30 105.546875 29.910156 105.636719 C 29.136719 105.78125 28.378906 105.75 27.636719 105.546875 C 27.605469 104.390625 27.515625 103.238281 27.363281 102.089844 C 26.355469 103.179688 26.207031 104.390625 26.910156 105.726562 C 28.082031 106.945312 29.386719 107.09375 30.816406 106.183594 C 31.058594 105.789062 31.363281 105.457031 31.726562 105.183594 C 32.523438 105.578125 33.25 106.0625 33.910156 106.636719 C 31.671875 109.832031 28.886719 110.40625 25.546875 108.363281 C 22.796875 105.34375 22.917969 102.433594 25.910156 99.636719 C 26.417969 99.320312 26.964844 99.109375 27.546875 99 C 27.546875 98.574219 27.546875 98.152344 27.546875 97.726562 C 26.574219 97.757812 25.605469 97.726562 24.636719 97.636719 C 24.398438 96.820312 24.398438 96 24.636719 95.183594 Z M 24.636719 95.183594 "/>
</g>
<mask id="mask2">
  <g filter="url(#alpha)">
<rect x="0" y="0" width="200" height="200" style="fill:rgb(0%,0%,0%);fill-opacity:0.976471;stroke:none;"/>
  </g>
</mask>
<clipPath id="clip3">
  <rect x="0" y="0" width="200" height="200"/>
</clipPath>
<g id="surface11" clip-path="url(#clip3)">
<path style=" stroke:none;fill-rule:evenodd;fill:rgb(99.607843%,100%,99.607843%);fill-opacity:1;" d="M 45.910156 95.183594 C 50.878906 95.152344 55.847656 95.183594 60.816406 95.273438 C 61.035156 95.4375 61.1875 95.648438 61.273438 95.910156 C 61.394531 96.941406 61.394531 97.96875 61.273438 99 C 61.1875 99.261719 61.035156 99.472656 60.816406 99.636719 C 59.242188 99.726562 57.667969 99.757812 56.089844 99.726562 C 56 102.148438 55.96875 104.570312 56 107 C 55.789062 107.210938 55.574219 107.425781 55.363281 107.636719 C 53.96875 107.757812 52.574219 107.757812 51.183594 107.636719 C 51.03125 107.484375 50.878906 107.332031 50.726562 107.183594 C 50.671875 105.148438 50.582031 103.121094 50.453125 101.089844 C 50.464844 100.6875 50.527344 100.292969 50.636719 99.910156 C 49.0625 99.757812 47.488281 99.667969 45.910156 99.636719 C 45.304688 99.121094 45.003906 98.453125 45 97.636719 C 45.128906 97.007812 45.222656 96.371094 45.273438 95.726562 C 45.480469 95.519531 45.691406 95.339844 45.910156 95.183594 Z M 45.910156 95.183594 "/>
</g>
<mask id="mask3">
  <g filter="url(#alpha)">
<rect x="0" y="0" width="200" height="200" style="fill:rgb(0%,0%,0%);fill-opacity:0.968627;stroke:none;"/>
  </g>
</mask>
<clipPath id="clip4">
  <rect x="0" y="0" width="200" height="200"/>
</clipPath>
<g id="surface14" clip-path="url(#clip4)">
<path style=" stroke:none;fill-rule:evenodd;fill:rgb(99.607843%,100%,99.607843%);fill-opacity:1;" d="M 82.089844 95.183594 C 84.214844 95.152344 86.335938 95.183594 88.453125 95.273438 C 90.195312 95.613281 91.617188 96.492188 92.726562 97.910156 C 93.050781 98.5 93.265625 99.136719 93.363281 99.816406 C 93.253906 100.109375 93.074219 100.351562 92.816406 100.546875 C 91.484375 100.667969 90.152344 100.667969 88.816406 100.546875 C 88.332031 100.183594 87.847656 99.816406 87.363281 99.453125 C 85.742188 99.035156 84.167969 99.15625 82.636719 99.816406 C 81.941406 100.785156 81.910156 101.785156 82.546875 102.816406 C 83.742188 103.503906 85.042969 103.71875 86.453125 103.453125 C 87.308594 103.269531 88.035156 102.847656 88.636719 102.183594 C 90.019531 101.964844 91.414062 101.964844 92.816406 102.183594 C 93.375 102.648438 93.464844 103.226562 93.089844 103.910156 C 92.378906 105.410156 91.257812 106.46875 89.726562 107.089844 C 87.328125 107.539062 84.90625 107.660156 82.453125 107.453125 C 78.023438 106.464844 76.292969 103.707031 77.273438 99.183594 C 77.621094 98.105469 78.257812 97.226562 79.183594 96.546875 C 80.148438 96.035156 81.121094 95.582031 82.089844 95.183594 Z M 82.089844 95.183594 "/>
</g>
<mask id="mask4">
  <g filter="url(#alpha)">
<rect x="0" y="0" width="200" height="200" style="fill:rgb(0%,0%,0%);fill-opacity:0.992157;stroke:none;"/>
  </g>
</mask>
<clipPath id="clip5">
  <rect x="0" y="0" width="200" height="200"/>
</clipPath>
<g id="surface17" clip-path="url(#clip5)">
<path style=" stroke:none;fill-rule:evenodd;fill:rgb(99.607843%,100%,99.607843%);fill-opacity:1;" d="M 104.453125 99.546875 C 104.738281 100.050781 105.074219 100.535156 105.453125 101 C 105.605469 99.753906 105.574219 98.542969 105.363281 97.363281 C 105.453125 96.699219 105.636719 96.066406 105.910156 95.453125 C 107.40625 95.082031 108.894531 95.113281 110.363281 95.546875 C 110.710938 99.527344 110.679688 103.496094 110.273438 107.453125 C 108.636719 107.574219 107 107.574219 105.363281 107.453125 C 103.3125 105.265625 101.285156 103.054688 99.273438 100.816406 C 99.15625 102.742188 99.003906 104.648438 98.816406 106.546875 C 99.261719 106.769531 99.292969 107.042969 98.910156 107.363281 C 97.5 107.570312 96.074219 107.601562 94.636719 107.453125 C 94.546875 107.363281 94.453125 107.273438 94.363281 107.183594 C 94.242188 103.363281 94.242188 99.546875 94.363281 95.726562 C 94.453125 95.636719 94.546875 95.546875 94.636719 95.453125 C 96.589844 95.214844 98.589844 95.214844 100.636719 95.453125 C 101.765625 96.644531 102.824219 97.886719 103.816406 99.183594 C 103.964844 99.421875 104.179688 99.542969 104.453125 99.546875 Z M 105.363281 97.363281 C 105.574219 98.542969 105.605469 99.753906 105.453125 101 C 105.074219 100.535156 104.738281 100.050781 104.453125 99.546875 C 104.546875 98.75 104.851562 98.019531 105.363281 97.363281 Z M 105.363281 97.363281 "/>
</g>
<mask id="mask5">
  <g filter="url(#alpha)">
<rect x="0" y="0" width="200" height="200" style="fill:rgb(0%,0%,0%);fill-opacity:0.952941;stroke:none;"/>
  </g>
</mask>
<clipPath id="clip6">
  <rect x="0" y="0" width="200" height="200"/>
</clipPath>
<g id="surface20" clip-path="url(#clip6)">
<path style=" stroke:none;fill-rule:evenodd;fill:rgb(99.607843%,100%,99.607843%);fill-opacity:1;" d="M 150.636719 95.183594 C 152.871094 95.246094 155.113281 95.273438 157.363281 95.273438 C 161.574219 96.632812 163.058594 99.511719 161.816406 103.910156 C 161.207031 105.34375 160.207031 106.25 158.816406 106.636719 C 158.226562 107.0625 157.558594 107.332031 156.816406 107.453125 C 154.941406 107.574219 153.058594 107.574219 151.183594 107.453125 C 150.871094 106.988281 150.476562 106.898438 150 107.183594 C 147.144531 106.296875 145.71875 104.355469 145.726562 101.363281 C 145.699219 99.648438 146.242188 98.164062 147.363281 96.910156 C 148.402344 96.179688 149.492188 95.601562 150.636719 95.183594 Z M 152.089844 99.183594 C 153.363281 99.152344 154.636719 99.183594 155.910156 99.273438 C 156.84375 99.683594 157.265625 100.410156 157.183594 101.453125 C 157.207031 102.617188 156.660156 103.347656 155.546875 103.636719 C 154.566406 103.675781 153.597656 103.765625 152.636719 103.910156 C 152.320312 103.488281 151.894531 103.214844 151.363281 103.089844 C 151.210938 102.941406 151.058594 102.789062 150.910156 102.636719 C 150.789062 101.789062 150.789062 100.941406 150.910156 100.089844 C 151.285156 99.738281 151.679688 99.4375 152.089844 99.183594 Z M 152.089844 99.183594 "/>
</g>
<mask id="mask6">
  <g filter="url(#alpha)">
<rect x="0" y="0" width="200" height="200" style="fill:rgb(0%,0%,0%);fill-opacity:0.94902;stroke:none;"/>
  </g>
</mask>
<clipPath id="clip7">
  <rect x="0" y="0" width="200" height="200"/>
</clipPath>
<g id="surface23" clip-path="url(#clip7)">
<path style=" stroke:none;fill-rule:evenodd;fill:rgb(99.607843%,100%,99.607843%);fill-opacity:1;" d="M 168.453125 95.183594 C 168.921875 95.375 169.316406 95.679688 169.636719 96.089844 C 170.90625 97.753906 172.207031 99.390625 173.546875 101 C 175.09375 99.179688 176.609375 97.328125 178.089844 95.453125 C 179.554688 95.417969 181.007812 95.328125 182.453125 95.183594 C 182.886719 95.113281 183.3125 95.203125 183.726562 95.453125 C 183.84375 95.589844 183.933594 95.742188 184 95.910156 C 184.121094 99.605469 184.121094 103.304688 184 107 C 183.847656 107.152344 183.695312 107.304688 183.546875 107.453125 C 182.152344 107.574219 180.757812 107.574219 179.363281 107.453125 C 179.210938 107.304688 179.058594 107.152344 178.910156 107 C 178.847656 105.304688 178.789062 103.605469 178.726562 101.910156 C 177.363281 103.757812 176 105.605469 174.636719 107.453125 C 173.910156 107.574219 173.183594 107.574219 172.453125 107.453125 C 171.160156 105.613281 169.796875 103.828125 168.363281 102.089844 C 168.304688 103.726562 168.242188 105.363281 168.183594 107 C 168.03125 107.152344 167.878906 107.304688 167.726562 107.453125 C 166.273438 107.574219 164.816406 107.574219 163.363281 107.453125 C 163.25 107.316406 163.160156 107.167969 163.089844 107 C 162.96875 103.304688 162.96875 99.605469 163.089844 95.910156 C 163.160156 95.742188 163.25 95.589844 163.363281 95.453125 C 165.09375 95.421875 166.789062 95.332031 168.453125 95.183594 Z M 168.453125 95.183594 "/>
</g>
<mask id="mask7">
  <g filter="url(#alpha)">
<rect x="0" y="0" width="200" height="200" style="fill:rgb(0%,0%,0%);fill-opacity:0.960784;stroke:none;"/>
  </g>
</mask>
<clipPath id="clip8">
  <rect x="0" y="0" width="200" height="200"/>
</clipPath>
<g id="surface26" clip-path="url(#clip8)">
<path style=" stroke:none;fill-rule:evenodd;fill:rgb(99.607843%,100%,99.607843%);fill-opacity:1;" d="M 62.453125 95.363281 C 66.941406 95.332031 71.425781 95.363281 75.910156 95.453125 C 76.152344 96.546875 76.152344 97.636719 75.910156 98.726562 C 72.941406 98.816406 69.96875 98.847656 67 98.816406 C 67 99.058594 67 99.304688 67 99.546875 C 69.847656 99.515625 72.699219 99.546875 75.546875 99.636719 C 75.710938 99.703125 75.863281 99.796875 76 99.910156 C 76.144531 100.863281 76.117188 101.804688 75.910156 102.726562 C 73 102.789062 70.089844 102.847656 67.183594 102.910156 C 67.015625 103.21875 66.957031 103.550781 67 103.910156 C 69.910156 103.878906 72.820312 103.910156 75.726562 104 C 75.816406 104.089844 75.910156 104.183594 76 104.273438 C 76.121094 105.242188 76.121094 106.210938 76 107.183594 C 75.910156 107.273438 75.816406 107.363281 75.726562 107.453125 C 71.363281 107.574219 67 107.574219 62.636719 107.453125 C 62.441406 107.320312 62.320312 107.136719 62.273438 106.910156 C 62.242188 103.121094 62.304688 99.269531 62.453125 95.363281 Z M 62.453125 95.363281 "/>
</g>
<mask id="mask8">
  <g filter="url(#alpha)">
<rect x="0" y="0" width="200" height="200" style="fill:rgb(0%,0%,0%);fill-opacity:0.937255;stroke:none;"/>
  </g>
</mask>
<clipPath id="clip9">
  <rect x="0" y="0" width="200" height="200"/>
</clipPath>
<g id="surface29" clip-path="url(#clip9)">
<path style=" stroke:none;fill-rule:evenodd;fill:rgb(99.607843%,100%,99.607843%);fill-opacity:1;" d="M 50.636719 112.089844 C 51.851562 112.0625 53.0625 112.089844 54.273438 112.183594 C 54.65625 112.496094 54.714844 112.859375 54.453125 113.273438 C 53.972656 113.363281 53.488281 113.394531 53 113.363281 C 53.03125 113.972656 53 114.578125 52.910156 115.183594 C 52.496094 115.441406 52.132812 115.382812 51.816406 115 C 51.726562 114.457031 51.699219 113.914062 51.726562 113.363281 C 50.375 113.652344 50.011719 113.230469 50.636719 112.089844 Z M 50.636719 112.089844 "/>
</g>
<mask id="mask9">
  <g filter="url(#alpha)">
<rect x="0" y="0" width="200" height="200" style="fill:rgb(0%,0%,0%);fill-opacity:0.772549;stroke:none;"/>
  </g>
</mask>
<clipPath id="clip10">
  <rect x="0" y="0" width="200" height="200"/>
</clipPath>
<g id="surface32" clip-path="url(#clip10)">
<path style=" stroke:none;fill-rule:evenodd;fill:rgb(99.607843%,100%,99.607843%);fill-opacity:1;" d="M 57.910156 112.089844 C 58.941406 112.0625 59.972656 112.089844 61 112.183594 C 61.5625 112.820312 61.441406 113.214844 60.636719 113.363281 C 60.675781 113.664062 60.613281 113.933594 60.453125 114.183594 C 61.296875 114.171875 61.539062 114.535156 61.183594 115.273438 C 60.03125 115.394531 58.878906 115.394531 57.726562 115.273438 C 57.519531 114.347656 57.488281 113.410156 57.636719 112.453125 C 57.765625 112.355469 57.859375 112.234375 57.910156 112.089844 Z M 57.910156 112.089844 "/>
</g>
<mask id="mask10">
  <g filter="url(#alpha)">
<rect x="0" y="0" width="200" height="200" style="fill:rgb(0%,0%,0%);fill-opacity:0.780392;stroke:none;"/>
  </g>
</mask>
<clipPath id="clip11">
  <rect x="0" y="0" width="200" height="200"/>
</clipPath>
<g id="surface35" clip-path="url(#clip11)">
<path style=" stroke:none;fill-rule:evenodd;fill:rgb(99.607843%,100%,99.607843%);fill-opacity:1;" d="M 65.363281 112.089844 C 66.273438 112.0625 67.183594 112.089844 68.089844 112.183594 C 68.472656 112.496094 68.535156 112.859375 68.273438 113.273438 C 67.367188 113.363281 66.457031 113.394531 65.546875 113.363281 C 65.507812 113.664062 65.566406 113.933594 65.726562 114.183594 C 66.574219 114.242188 67.425781 114.304688 68.273438 114.363281 C 68.515625 114.667969 68.515625 114.96875 68.273438 115.273438 C 67.183594 115.394531 66.089844 115.394531 65 115.273438 C 63.9375 114.054688 64.058594 112.996094 65.363281 112.089844 Z M 65.363281 112.089844 "/>
</g>
<mask id="mask11">
  <g filter="url(#alpha)">
<rect x="0" y="0" width="200" height="200" style="fill:rgb(0%,0%,0%);fill-opacity:0.807843;stroke:none;"/>
  </g>
</mask>
<clipPath id="clip12">
  <rect x="0" y="0" width="200" height="200"/>
</clipPath>
<g id="surface38" clip-path="url(#clip12)">
<path style=" stroke:none;fill-rule:evenodd;fill:rgb(99.607843%,100%,99.607843%);fill-opacity:1;" d="M 71.726562 112.089844 C 72.035156 112.0625 72.339844 112.09375 72.636719 112.183594 C 73.265625 112.628906 73.84375 113.144531 74.363281 113.726562 C 74.425781 113.242188 74.484375 112.757812 74.546875 112.273438 C 74.957031 112.011719 75.320312 112.074219 75.636719 112.453125 C 76.214844 115.761719 75.304688 116.246094 72.910156 113.910156 C 72.847656 114.332031 72.789062 114.757812 72.726562 115.183594 C 72.414062 115.378906 72.082031 115.40625 71.726562 115.273438 C 71.488281 114.210938 71.488281 113.152344 71.726562 112.089844 Z M 71.726562 112.089844 "/>
</g>
<mask id="mask12">
  <g filter="url(#alpha)">
<rect x="0" y="0" width="200" height="200" style="fill:rgb(0%,0%,0%);fill-opacity:0.721569;stroke:none;"/>
  </g>
</mask>
<clipPath id="clip13">
  <rect x="0" y="0" width="200" height="200"/>
</clipPath>
<g id="surface41" clip-path="url(#clip13)">
<path style=" stroke:none;fill-rule:evenodd;fill:rgb(99.607843%,100%,99.607843%);fill-opacity:1;" d="M 101.183594 112.089844 C 102.199219 112.035156 103.199219 112.097656 104.183594 112.273438 C 104.261719 113.257812 104.230469 114.257812 104.089844 115.273438 C 103.058594 115.394531 102.03125 115.394531 101 115.273438 C 100.296875 114.605469 100.085938 113.789062 100.363281 112.816406 C 100.617188 112.53125 100.890625 112.289062 101.183594 112.089844 Z M 101.546875 113.363281 C 101.679688 113.339844 101.800781 113.371094 101.910156 113.453125 C 101.777344 113.753906 101.71875 114.027344 101.726562 114.273438 C 101.328125 114.039062 101.265625 113.738281 101.546875 113.363281 Z M 101.546875 113.363281 "/>
</g>
<mask id="mask13">
  <g filter="url(#alpha)">
<rect x="0" y="0" width="200" height="200" style="fill:rgb(0%,0%,0%);fill-opacity:0.8;stroke:none;"/>
  </g>
</mask>
<clipPath id="clip14">
  <rect x="0" y="0" width="200" height="200"/>
</clipPath>
<g id="surface44" clip-path="url(#clip14)">
<path style=" stroke:none;fill-rule:evenodd;fill:rgb(99.607843%,100%,99.607843%);fill-opacity:1;" d="M 131.546875 112.089844 C 132.457031 112.0625 133.367188 112.089844 134.273438 112.183594 C 134.65625 112.496094 134.714844 112.859375 134.453125 113.273438 C 133.546875 113.363281 132.636719 113.394531 131.726562 113.363281 C 131.6875 113.664062 131.75 113.933594 131.910156 114.183594 C 132.757812 114.242188 133.605469 114.304688 134.453125 114.363281 C 134.695312 114.667969 134.695312 114.96875 134.453125 115.273438 C 133.363281 115.394531 132.273438 115.394531 131.183594 115.273438 C 130.117188 114.054688 130.238281 112.996094 131.546875 112.089844 Z M 131.546875 112.089844 "/>
</g>
</defs>
<g id="surface1">
<path style=" stroke:none;fill-rule:evenodd;fill:rgb(99.607843%,100%,99.607843%);fill-opacity:1;" d="M 15.546875 96.273438 C 15.226562 96.339844 14.921875 96.460938 14.636719 96.636719 C 14.425781 95.792969 14.394531 94.945312 14.546875 94.089844 C 14.75 93.703125 15.023438 93.371094 15.363281 93.089844 C 19.242188 90.847656 23.121094 88.605469 27 86.363281 C 27.867188 85.742188 28.6875 85.773438 29.453125 86.453125 C 30.953125 89.152344 32.5 91.816406 34.089844 94.453125 C 34.058594 94.515625 34.03125 94.574219 34 94.636719 C 33.613281 94.207031 33.128906 94.027344 32.546875 94.089844 C 30.699219 94.300781 28.851562 94.300781 27 94.089844 C 26.140625 94.09375 25.292969 94.1875 24.453125 94.363281 C 21.171875 98.835938 17.871094 103.289062 14.546875 107.726562 C 14.378906 106.433594 14.4375 105.164062 14.726562 103.910156 C 16.535156 101.773438 18.324219 99.621094 20.089844 97.453125 C 19.96875 97.332031 19.847656 97.332031 19.726562 97.453125 C 18.054688 99.1875 16.328125 100.855469 14.546875 102.453125 C 14.425781 101.667969 14.425781 100.878906 14.546875 100.089844 C 15.648438 99.007812 16.769531 97.949219 17.910156 96.910156 C 16.710938 97.492188 15.589844 98.25 14.546875 99.183594 C 14.425781 98.515625 14.425781 97.847656 14.546875 97.183594 C 14.945312 96.941406 15.277344 96.636719 15.546875 96.273438 Z M 16.089844 95.910156 C 16.003906 96.164062 15.824219 96.285156 15.546875 96.273438 C 15.632812 96.015625 15.8125 95.894531 16.089844 95.910156 Z M 16.089844 95.910156 "/>
<path style=" stroke:none;fill-rule:evenodd;fill:rgb(99.607843%,100%,99.607843%);fill-opacity:1;" d="M 31.363281 87 C 31.5 86.804688 31.683594 86.773438 31.910156 86.910156 C 32.710938 87.445312 33.53125 87.960938 34.363281 88.453125 C 35.515625 91.605469 36.667969 94.757812 37.816406 97.910156 C 37.3125 95.132812 36.679688 92.375 35.910156 89.636719 C 35.96875 89.546875 36.03125 89.453125 36.089844 89.363281 C 36.773438 89.71875 37.410156 90.144531 38 90.636719 C 38.425781 92.574219 38.847656 94.515625 39.273438 96.453125 C 39.246094 94.710938 39.09375 92.984375 38.816406 91.273438 C 39.414062 91.25 39.929688 91.464844 40.363281 91.910156 C 40.613281 93.050781 40.792969 94.199219 40.910156 95.363281 C 40.96875 94.332031 41.03125 93.304688 41.089844 92.273438 C 42.042969 92.679688 42.832031 93.289062 43.453125 94.089844 C 43.574219 99.304688 43.574219 104.515625 43.453125 109.726562 C 43.269531 110.046875 43 110.257812 42.636719 110.363281 C 39.429688 110.320312 36.214844 110.261719 33 110.183594 C 33.332031 110.132812 33.605469 109.980469 33.816406 109.726562 C 34.710938 107.878906 35.742188 106.121094 36.910156 104.453125 C 37.320312 103.726562 37.652344 102.96875 37.910156 102.183594 C 35.792969 97.074219 33.613281 92.015625 31.363281 87 Z M 31.363281 87 "/>
<use xlink:href="#surface5" mask="url(#mask0)"/>
<use xlink:href="#surface8" mask="url(#mask1)"/>
<use xlink:href="#surface11" mask="url(#mask2)"/>
<use xlink:href="#surface14" mask="url(#mask3)"/>
<use xlink:href="#surface17" mask="url(#mask4)"/>
<use xlink:href="#surface20" mask="url(#mask5)"/>
<use xlink:href="#surface23" mask="url(#mask6)"/>
<use xlink:href="#surface26" mask="url(#mask7)"/>
<path style=" stroke:none;fill-rule:evenodd;fill:rgb(99.607843%,100%,99.607843%);fill-opacity:1;" d="M 133.726562 95.363281 C 135.921875 95.394531 138.105469 95.425781 140.273438 95.453125 C 141.035156 95.679688 141.824219 95.984375 142.636719 96.363281 C 143.949219 97.25 144.738281 98.460938 145 100 C 144.847656 100.167969 144.667969 100.289062 144.453125 100.363281 C 143.183594 100.484375 141.910156 100.484375 140.636719 100.363281 C 138.746094 98.796875 136.6875 98.554688 134.453125 99.636719 C 133.675781 100.527344 133.527344 101.527344 134 102.636719 C 134.457031 103.1875 135.03125 103.519531 135.726562 103.636719 C 137.570312 104.082031 139.144531 103.65625 140.453125 102.363281 C 141.851562 102.210938 143.246094 102.242188 144.636719 102.453125 C 144.753906 104.375 143.90625 105.738281 142.089844 106.546875 C 140.515625 107.253906 138.847656 107.527344 137.089844 107.363281 C 136.152344 107.332031 135.210938 107.304688 134.273438 107.273438 C 134.0625 107.15625 133.882812 107.003906 133.726562 106.816406 C 133.4375 106.996094 133.132812 107.027344 132.816406 106.910156 C 131.945312 106.445312 131.097656 105.929688 130.273438 105.363281 C 129.941406 104.820312 129.605469 104.273438 129.273438 103.726562 C 129.152344 102.089844 129.152344 100.453125 129.273438 98.816406 C 129.71875 97.992188 130.292969 97.265625 131 96.636719 C 131.925781 96.191406 132.832031 95.765625 133.726562 95.363281 Z M 133.726562 95.363281 "/>
<path style=" stroke:none;fill-rule:evenodd;fill:rgb(99.607843%,100%,99.607843%);fill-opacity:1;" d="M 19.726562 101.726562 C 19.664062 102.136719 19.753906 102.5625 20 103 C 21.460938 105.347656 22.945312 107.683594 24.453125 110 C 30.027344 110.648438 35.601562 111.285156 41.183594 111.910156 C 40.222656 112.601562 39.191406 113.144531 38.089844 113.546875 C 34.824219 112.980469 31.550781 112.523438 28.273438 112.183594 C 31.078125 112.914062 33.867188 113.703125 36.636719 114.546875 C 36.023438 115.035156 35.355469 115.429688 34.636719 115.726562 C 32.949219 115.175781 31.253906 114.71875 29.546875 114.363281 C 30.949219 114.984375 32.34375 115.617188 33.726562 116.273438 C 33.285156 116.691406 32.769531 116.996094 32.183594 117.183594 C 31.632812 116.875 31.058594 116.726562 30.453125 116.726562 C 30.910156 116.921875 31.332031 117.167969 31.726562 117.453125 C 30.742188 118.546875 29.527344 118.910156 28.089844 118.546875 C 24.179688 116.316406 20.242188 114.136719 16.273438 112 C 15.242188 111.664062 14.847656 110.964844 15.089844 109.910156 C 16.636719 107.175781 18.183594 104.449219 19.726562 101.726562 Z M 19.726562 101.726562 "/>
<use xlink:href="#surface29" mask="url(#mask8)"/>
<use xlink:href="#surface32" mask="url(#mask9)"/>
<use xlink:href="#surface35" mask="url(#mask10)"/>
<use xlink:href="#surface38" mask="url(#mask11)"/>
<use xlink:href="#surface41" mask="url(#mask12)"/>
<use xlink:href="#surface44" mask="url(#mask13)"/>
<path style=" stroke:none;fill-rule:evenodd;fill:rgb(99.607843%,100%,99.607843%);fill-opacity:1;" d="M 79.726562 112.273438 C 80.660156 112.203125 81.570312 112.292969 82.453125 112.546875 C 83.066406 113.230469 83.160156 113.988281 82.726562 114.816406 C 82.589844 114.933594 82.4375 115.023438 82.273438 115.089844 C 81.363281 115.210938 80.453125 115.210938 79.546875 115.089844 C 79.011719 114.5 78.863281 113.800781 79.089844 113 C 79.214844 112.664062 79.429688 112.421875 79.726562 112.273438 Z M 80.089844 113.183594 C 80.699219 113.152344 81.304688 113.183594 81.910156 113.273438 C 82.171875 113.683594 82.109375 114.046875 81.726562 114.363281 C 81.183594 114.484375 80.636719 114.484375 80.089844 114.363281 C 79.859375 113.96875 79.859375 113.578125 80.089844 113.183594 Z M 80.089844 113.183594 "/>
<path style=" stroke:none;fill-rule:evenodd;fill:rgb(99.607843%,100%,99.607843%);fill-opacity:1;" d="M 86.453125 112.273438 C 86.695312 112.273438 86.941406 112.273438 87.183594 112.273438 C 87.183594 113 87.183594 113.726562 87.183594 114.453125 C 88.089844 114.453125 89 114.453125 89.910156 114.453125 C 89.910156 114.695312 89.910156 114.941406 89.910156 115.183594 C 88.757812 115.183594 87.605469 115.183594 86.453125 115.183594 C 86.453125 114.210938 86.453125 113.242188 86.453125 112.273438 Z M 86.453125 112.273438 "/>
<path style=" stroke:none;fill-rule:evenodd;fill:rgb(99.607843%,100%,99.607843%);fill-opacity:1;" d="M 93.910156 112.273438 C 94.839844 112.203125 95.75 112.292969 96.636719 112.546875 C 97.175781 113.453125 97.113281 114.300781 96.453125 115.089844 C 95.476562 115.234375 94.503906 115.203125 93.546875 115 C 92.742188 113.949219 92.863281 113.039062 93.910156 112.273438 Z M 94.089844 113.183594 C 94.699219 113.152344 95.304688 113.183594 95.910156 113.273438 C 96.105469 113.585938 96.136719 113.917969 96 114.273438 C 95.441406 114.476562 94.867188 114.507812 94.273438 114.363281 C 93.875 114.019531 93.816406 113.625 94.089844 113.183594 Z M 94.089844 113.183594 "/>
<path style=" stroke:none;fill-rule:evenodd;fill:rgb(99.607843%,100%,99.607843%);fill-opacity:1;" d="M 107.726562 112.273438 C 108.085938 112.230469 108.417969 112.289062 108.726562 112.453125 C 108.816406 113.363281 108.847656 114.269531 108.816406 115.183594 C 108.453125 115.183594 108.089844 115.183594 107.726562 115.183594 C 107.726562 114.210938 107.726562 113.242188 107.726562 112.273438 Z M 107.726562 112.273438 "/>
<path style=" stroke:none;fill-rule:evenodd;fill:rgb(99.607843%,100%,99.607843%);fill-opacity:1;" d="M 113 112.273438 C 113.96875 112.273438 114.941406 112.273438 115.910156 112.273438 C 115.910156 112.574219 115.910156 112.878906 115.910156 113.183594 C 114.992188 113.121094 114.082031 113.183594 113.183594 113.363281 C 112.917969 113.753906 112.976562 114.085938 113.363281 114.363281 C 114.210938 114.453125 115.058594 114.484375 115.910156 114.453125 C 115.910156 114.695312 115.910156 114.941406 115.910156 115.183594 C 114.878906 115.210938 113.847656 115.179688 112.816406 115.089844 C 112.371094 114.753906 112.191406 114.296875 112.273438 113.726562 C 112.140625 113.035156 112.386719 112.550781 113 112.273438 Z M 113 112.273438 "/>
<path style=" stroke:none;fill-rule:evenodd;fill:rgb(99.607843%,100%,99.607843%);fill-opacity:1;" d="M 120.089844 112.273438 C 121.023438 112.203125 121.933594 112.292969 122.816406 112.546875 C 123.355469 113.453125 123.296875 114.300781 122.636719 115.089844 C 121.65625 115.234375 120.6875 115.203125 119.726562 115 C 118.921875 113.949219 119.042969 113.039062 120.089844 112.273438 Z M 120.273438 113.183594 C 120.882812 113.152344 121.488281 113.183594 122.089844 113.273438 C 122.285156 113.585938 122.316406 113.917969 122.183594 114.273438 C 121.625 114.476562 121.046875 114.507812 120.453125 114.363281 C 120.058594 114.019531 119.996094 113.625 120.273438 113.183594 Z M 120.273438 113.183594 "/>
<path style=" stroke:none;fill-rule:evenodd;fill:rgb(99.607843%,100%,99.607843%);fill-opacity:1;" d="M 138.453125 112.273438 C 139.386719 112.203125 140.296875 112.292969 141.183594 112.546875 C 141.796875 113.230469 141.886719 113.988281 141.453125 114.816406 C 141.316406 114.933594 141.167969 115.023438 141 115.089844 C 140.089844 115.210938 139.183594 115.210938 138.273438 115.089844 C 137.742188 114.5 137.589844 113.800781 137.816406 113 C 137.945312 112.664062 138.15625 112.421875 138.453125 112.273438 Z M 138.816406 113.183594 C 139.425781 113.152344 140.035156 113.183594 140.636719 113.273438 C 140.898438 113.683594 140.835938 114.046875 140.453125 114.363281 C 139.910156 114.484375 139.363281 114.484375 138.816406 114.363281 C 138.585938 113.96875 138.585938 113.578125 138.816406 113.183594 Z M 138.816406 113.183594 "/>
<path style=" stroke:none;fill-rule:evenodd;fill:rgb(99.607843%,100%,99.607843%);fill-opacity:1;" d="M 145.183594 112.273438 C 145.492188 112.242188 145.792969 112.273438 146.089844 112.363281 C 146.402344 112.953125 146.734375 113.53125 147.089844 114.089844 C 147.507812 113.53125 147.902344 112.957031 148.273438 112.363281 C 148.570312 112.273438 148.871094 112.242188 149.183594 112.273438 C 149.183594 113.242188 149.183594 114.210938 149.183594 115.183594 C 148.878906 115.183594 148.574219 115.183594 148.273438 115.183594 C 148.347656 113.84375 148.167969 113.78125 147.726562 115 C 147.378906 115.207031 147.015625 115.238281 146.636719 115.089844 C 146.085938 113.773438 145.84375 113.804688 145.910156 115.183594 C 145.667969 115.183594 145.425781 115.183594 145.183594 115.183594 C 145.183594 114.210938 145.183594 113.242188 145.183594 112.273438 Z M 145.183594 112.273438 "/>
<path style=" stroke:none;fill-rule:evenodd;fill:rgb(99.607843%,100%,99.607843%);fill-opacity:1;" d="M 152.816406 112.273438 C 153.910156 112.242188 155 112.273438 156.089844 112.363281 C 156.25 112.609375 156.3125 112.882812 156.273438 113.183594 C 155.363281 113.152344 154.453125 113.183594 153.546875 113.273438 C 154.148438 113.363281 154.753906 113.394531 155.363281 113.363281 C 155.363281 113.605469 155.363281 113.847656 155.363281 114.089844 C 154.746094 114.03125 154.140625 114.09375 153.546875 114.273438 C 154.445312 114.453125 155.355469 114.515625 156.273438 114.453125 C 156.304688 114.695312 156.242188 114.90625 156.089844 115.089844 C 155 115.179688 153.910156 115.210938 152.816406 115.183594 C 152.816406 114.210938 152.816406 113.242188 152.816406 112.273438 Z M 152.816406 112.273438 "/>
<path style=" stroke:none;fill-rule:evenodd;fill:rgb(99.607843%,100%,99.607843%);fill-opacity:1;" d="M 159.726562 112.273438 C 160.828125 112.570312 161.769531 113.175781 162.546875 114.089844 C 162.636719 113.488281 162.667969 112.882812 162.636719 112.273438 C 162.933594 112.234375 163.207031 112.292969 163.453125 112.453125 C 163.546875 113.363281 163.574219 114.269531 163.546875 115.183594 C 163.175781 115.210938 162.8125 115.179688 162.453125 115.089844 C 161.820312 114.609375 161.214844 114.09375 160.636719 113.546875 C 160.457031 114.078125 160.398438 114.625 160.453125 115.183594 C 160.210938 115.183594 159.96875 115.183594 159.726562 115.183594 C 159.726562 114.210938 159.726562 113.242188 159.726562 112.273438 Z M 159.726562 112.273438 "/>
<path style=" stroke:none;fill-rule:evenodd;fill:rgb(99.607843%,100%,99.607843%);fill-opacity:1;" d="M 167.183594 112.273438 C 167.484375 112.273438 167.789062 112.273438 168.089844 112.273438 C 168.089844 113.242188 168.089844 114.210938 168.089844 115.183594 C 167.789062 115.183594 167.484375 115.183594 167.183594 115.183594 C 167.183594 114.210938 167.183594 113.242188 167.183594 112.273438 Z M 167.183594 112.273438 "/>
<path style=" stroke:none;fill-rule:evenodd;fill:rgb(99.607843%,100%,99.607843%);fill-opacity:1;" d="M 171.910156 112.273438 C 172.152344 112.273438 172.394531 112.273438 172.636719 112.273438 C 172.605469 112.941406 172.636719 113.609375 172.726562 114.273438 C 173.394531 114.515625 174.058594 114.515625 174.726562 114.273438 C 174.816406 113.609375 174.847656 112.941406 174.816406 112.273438 C 175.058594 112.273438 175.304688 112.273438 175.546875 112.273438 C 175.574219 113.183594 175.546875 114.09375 175.453125 115 C 174.347656 115.207031 173.226562 115.238281 172.089844 115.089844 C 172 115 171.910156 114.910156 171.816406 114.816406 C 171.675781 113.953125 171.707031 113.105469 171.910156 112.273438 Z M 171.910156 112.273438 "/>
<path style=" stroke:none;fill-rule:evenodd;fill:rgb(99.607843%,100%,99.607843%);fill-opacity:1;" d="M 179.546875 112.273438 C 180.636719 112.242188 181.730469 112.273438 182.816406 112.363281 C 182.976562 112.609375 183.039062 112.882812 183 113.183594 C 182.027344 113.152344 181.058594 113.183594 180.089844 113.273438 C 180.941406 113.332031 181.789062 113.394531 182.636719 113.453125 C 183.121094 114 183.121094 114.546875 182.636719 115.089844 C 181.488281 115.183594 180.335938 115.210938 179.183594 115.183594 C 179.183594 114.941406 179.183594 114.695312 179.183594 114.453125 C 180.160156 114.515625 181.128906 114.453125 182.089844 114.273438 C 181.1875 114.121094 180.277344 114.03125 179.363281 114 C 179.09375 113.382812 179.152344 112.804688 179.546875 112.273438 Z M 179.546875 112.273438 "/>
</g>
</svg>
