<svg version="1.2" xmlns="http://www.w3.org/2000/svg" viewBox="0 0 1100 233" width="236" height="50">
	<title>logo-comenius-blanco-svg</title>
	<style>
		.s0 { fill: #fefffe } 
		.s1 { opacity: .9;fill: #fefffe } 
		.s2 { opacity: 1;fill: #fefffe } 
		.s3 { opacity: .8;fill: #fefffe } 
		.s4 { opacity: .7;fill: #fefffe } 
	</style>
	<g id="Layer">
		<path id="Layer" fill-rule="evenodd" class="s0" d="m85.5 93.5q-2.6 0.6-5 2-1.7-6.9-0.5-14 1.7-3.2 4.5-5.5 32-18.5 64-37 7.2-5.1 13.5 0.5 12.4 22.2 25.5 44-0.3 0.5-0.5 1-3.2-3.5-8-3-15.2 1.7-30.5 0-7.1 0-14 1.5-27.1 36.9-54.5 73.5-1.4-10.7 1-21 14.9-17.6 29.5-35.5-1-1-2 0-13.8 14.3-28.5 27.5-1-6.5 0-13 9.1-8.9 18.5-17.5-9.9 4.8-18.5 12.5-1-5.5 0-11 3.3-2 5.5-5zm0 0q2.3 0.1 3-2-2.3-0.1-3 2z"/>
	</g>
	<g id="Layer">
		<path id="Layer" fill-rule="evenodd" class="s0" d="m172.5 42.5q1.1-1.6 3-0.5 6.6 4.4 13.5 8.5 9.5 26 19 52-4.2-22.9-10.5-45.5 0.5-0.8 1-1.5 5.6 2.9 10.5 7 3.5 16 7 32-0.2-14.4-2.5-28.5 4.9-0.2 8.5 3.5 2.1 9.4 3 19 0.5-8.5 1-17 7.9 3.4 13 10 1 43 0 86-1.5 2.6-4.5 3.5-26.5-0.3-53-1 2.7-0.4 4.5-2.5 7.4-15.2 17-29 3.4-6 5.5-12.5-17.4-42.1-36-83.5z"/>
	</g>
	<g id="Layer">
		<path id="Layer" fill-rule="evenodd" class="s1" d="m670.5 86.5q45.6 7.9 30.5 52-6.7 10.7-18.5 14.5-2.4 1.1-4.5-0.5-1.4 1.8-3.5 2.5-15.7 1.8-31 0-35-8-28.5-43.5 6.1-19.6 26.5-23.5 14.8-0.3 29-1.5zm-27.5 27q-1 7.5 0 15 3.4 3.3 7.5 5.5 7.6 0.3 15 1.5 4.4-3.6 9.5-6 2-3.5 2.5-7.5-0.2-8.8-8-12-10-0.7-20-0.5-2.8 2.4-6.5 4z"/>
	</g>
	<g id="Layer">
		<path id="Layer" fill-rule="evenodd" class="s2" d="m135.5 87.5q24.5-0.3 49 0.5 2 6.5 0 13-9 0.7-18 0.5-0.4 2.7 1 5 11.3 4.3 18.5 14 1.5 1.9 1 4-5.9 4.6-12.5 8-3.8-3.2-7-7-1.2 9-1.5 18-0.8 0.8-1.5 1.5-6.4 1.2-12.5-0.5-0.3-9.5-1.5-19-8.3 9-2.5 20 9.7 10 21.5 2.5 2-3.2 5-5.5 6.6 3.3 12 8-18.4 26.4-46 9.5-22.7-24.9 2-48 4.2-2.6 9-3.5 0-3.5 0-7-8 0.2-16-0.5-2-6.7 0-13.5z"/>
	</g>
	<g id="Layer">
		<path id="Layer" fill-rule="evenodd" class="s2" d="m252.5 87.5q41-0.3 82 0.5 1.8 1.4 2.5 3.5 1 8.5 0 17-0.7 2.1-2.5 3.5-13 0.7-26 0.5-0.8 20-0.5 40-1.8 1.8-3.5 3.5-11.5 1-23 0-1.3-1.3-2.5-2.5-0.4-16.8-1.5-33.5 0.1-3.3 1-6.5-13-1.2-26-1.5-5-4.3-5-11 1.1-5.2 1.5-10.5 1.7-1.7 3.5-3z"/>
	</g>
	<g id="Layer">
		<path id="Layer" fill-rule="evenodd" class="s2" d="m451.5 87.5q17.5-0.3 35 0.5 14.3 2.8 23.5 14.5 2.7 4.9 3.5 10.5-0.9 2.4-3 4-11 1-22 0-4-3-8-6-13.4-3.5-26 2-5.7 8-0.5 16.5 9.9 5.7 21.5 3.5 7-1.5 12-7 11.4-1.8 23 0 4.6 3.9 1.5 9.5-5.9 12.4-18.5 17.5-19.8 3.7-40 2-36.6-8.2-28.5-45.5 2.9-8.9 10.5-14.5 8-4.2 16-7.5z"/>
	</g>
	<g id="Layer">
		<path id="Layer" fill-rule="evenodd" class="s2" d="m582.5 89q12.4-3.1 24.5 0.5 2.9 32.8-0.5 65.5-13.5 1-27 0-16.9-18-33.5-36.5-1 15.9-2.5 31.5 3.7 1.8 0.5 4.5-11.6 1.7-23.5 0.5-0.8-0.8-1.5-1.5-1-31.5 0-63 0.8-0.8 1.5-1.5 16.1-2 33 0 9.3 9.8 17.5 20.5 1.2 2 3.5 2 2.4 4.2 5.5 8 1.2-10.3-0.5-20-4.2 5.4-5 12 2.4 4.2 5.5 8 1.2-10.3-0.5-20 0.7-5.5 3-10.5z"/>
	</g>
	<g id="Layer">
		<path id="Layer" fill-rule="evenodd" class="s2" d="m828.5 87.5q18.4 0.5 37 0.5 34.7 11.2 24.5 47.5-5 11.8-16.5 15-4.9 3.5-11 4.5-15.5 1-31 0-2.6-3.9-6.5-1.5-23.6-7.3-23.5-32-0.2-14.2 9-24.5 8.6-6 18-9.5zm1.5 27q-1 7 0 14 1.3 1.3 2.5 2.5 4.4 1 7 4.5 7.9-1.2 16-1.5 9.2-2.4 9-12 0.7-8.6-7-12-10.5-0.7-21-0.5-3.4 2.1-6.5 5z"/>
	</g>
	<g id="Layer">
		<path id="Layer" fill-rule="evenodd" class="s1" d="m926.5 87.5q3.9 1.6 6.5 5 10.5 13.7 21.5 27 12.8-15 25-30.5 12.1-0.3 24-1.5 3.6-0.6 7 1.5 0.9 1.1 1.5 2.5 1 30.5 0 61-1.3 1.3-2.5 2.5-11.5 1-23 0-1.3-1.3-2.5-2.5-0.5-14-1-28-11.3 15.3-22.5 30.5-6 1-12 0-10.7-15.2-22.5-29.5-0.5 13.5-1 27-1.3 1.3-2.5 2.5-12 1-24 0-0.9-1.1-1.5-2.5-1-30.5 0-61 0.6-1.4 1.5-2.5 14.3-0.3 28-1.5z"/>
	</g>
	<g id="Layer">
		<path id="Layer" fill-rule="evenodd" class="s2" d="m343.5 88.5q37-0.3 74 0.5 2 9 0 18-24.5 0.8-49 0.5 0 2 0 4 23.5-0.3 47 0.5 1.4 0.6 2.5 1.5 1.2 7.9-0.5 15.5-24 0.5-48 1-1.4 2.5-1 5.5 24-0.3 48 0.5 0.8 0.8 1.5 1.5 1 8 0 16-0.8 0.8-1.5 1.5-36 1-72 0-1.6-1.1-2-3-0.2-31.3 1-63.5z"/>
	</g>
	<g id="Layer">
		<path id="Layer" fill-rule="evenodd" class="s0" d="m735.5 88.5q18.1 0.3 36 0.5 6.3 1.9 13 5 10.8 7.3 13 20-1.2 1.4-3 2-10.5 1-21 0-15.6-12.9-34-4-6.4 7.3-2.5 16.5 3.8 4.5 9.5 5.5 15.2 3.7 26-7 11.5-1.2 23 0.5 1 15.9-14 22.5-13 5.9-27.5 4.5-7.8-0.3-15.5-0.5-1.7-1-3-2.5-2.4 1.5-5 0.5-7.2-3.8-14-8.5-2.7-4.5-5.5-9-1-13.5 0-27 3.7-6.8 9.5-12 7.6-3.7 15-7z"/>
	</g>
	<g id="Layer">
		<path id="Layer" fill-rule="evenodd" class="s0" d="m108.5 123.5q-0.5 3.4 1.5 7 12.1 19.4 24.5 38.5 46 5.3 92 10.5-7.9 5.7-17 9-26.9-4.7-54-7.5 23.2 6 46 13-5.1 4-11 6.5-13.9-4.6-28-7.5 11.6 5.1 23 10.5-3.7 3.5-8.5 5-4.5-2.5-9.5-2.5 3.7 1.6 7 4-8.1 9-20 6-32.3-18.4-65-36-8.5-2.8-6.5-11.5 12.8-22.5 25.5-45z"/>
	</g>
	<g id="Layer">
		<path id="Layer" fill-rule="evenodd" class="s1" d="m278.5 180.5q10-0.2 20 0.5 3.2 2.6 1 6-4 0.7-8 0.5 0.2 5-0.5 10-3.4 2.2-6-1-0.7-4.5-0.5-9-11.1 2.4-6-7z"/>
	</g>
	<g id="Layer">
		<path id="Layer" fill-rule="evenodd" class="s3" d="m318.5 180.5q8.5-0.2 17 0.5 4.6 5.3-2 6.5 0.3 2.5-1 4.5 7-0.1 4 6-9.5 1-19 0-1.7-7.6-0.5-15.5 1.1-0.8 1.5-2z"/>
	</g>
	<g id="Layer">
		<path id="Layer" fill-rule="evenodd" class="s3" d="m359.5 180.5q7.5-0.2 15 0.5 3.2 2.6 1 6-7.5 0.7-15 0.5-0.3 2.5 1 4.5 7 0.5 14 1 2 2.5 0 5-9 1-18 0-8.8-10 2-17.5z"/>
	</g>
	<g id="Layer">
		<path id="Layer" fill-rule="evenodd" class="s3" d="m394.5 180.5q2.5-0.2 5 0.5 5.2 3.7 9.5 8.5 0.5-4 1-8 3.4-2.2 6 1 4.8 27.3-15 8-0.5 3.5-1 7-2.6 1.6-5.5 0.5-2-8.7 0-17.5z"/>
	</g>
	<g id="Layer">
		<path id="Layer" fill-rule="evenodd" class="s4" d="m556.5 180.5q8.4-0.5 16.5 1 0.7 8.1-0.5 16.5-8.5 1-17 0-5.8-5.5-3.5-13.5 2.1-2.4 4.5-4zm3 12q-0.1-2 1-4.5-0.9-0.7-2-0.5-2.3 3.1 1 5z"/>
	</g>
	<g id="Layer">
		<path id="Layer" fill-rule="evenodd" class="s3" d="m723.5 180.5q7.5-0.2 15 0.5 3.2 2.6 1 6-7.5 0.7-15 0.5-0.3 2.5 1 4.5 7 0.5 14 1 2 2.5 0 5-9 1-18 0-8.8-10 2-17.5z"/>
	</g>
	<g id="Layer">
		<path id="Layer" fill-rule="evenodd" class="s0" d="m438.5 181.5q7.7-0.6 15 1.5 5.1 5.6 1.5 12.5-1.1 0.9-2.5 1.5-7.5 1-15 0-4.4-4.9-2.5-11.5 1-2.8 3.5-4zm2 11.5q4.5 1 9 0 3.2-2.6 1-6-5-0.7-10-0.5-1.9 3.3 0 6.5z"/>
	</g>
	<g id="Layer">
		<path id="Layer" fill-rule="evenodd" class="s0" d="m475.5 181.5q2 0 4 0 0 6 0 12 7.5 0 15 0 0 2 0 4-9.5 0-19 0 0-8 0-16z"/>
	</g>
	<g id="Layer">
		<path id="Layer" fill-rule="evenodd" class="s0" d="m516.5 181.5q7.7-0.6 15 1.5 4.4 7.5-1 14-8.1 1.2-16-0.5-6.6-8.7 2-15zm2 11.5q4.9 1.2 9.5-0.5 1.1-2.9-0.5-5.5-5-0.7-10-0.5-2.3 3.7 1 6.5z"/>
	</g>
	<g id="Layer">
		<path id="Layer" fill-rule="evenodd" class="s0" d="m592.5 181.5q3-0.4 5.5 1 0.7 7.5 0.5 15-3 0-6 0 0-8 0-16z"/>
	</g>
	<g id="Layer">
		<path id="Layer" fill-rule="evenodd" class="s0" d="m621.5 181.5q8 0 16 0 0 2.5 0 5-7.6-0.5-15 1-2.2 3.2 1 5.5 7 0.7 14 0.5 0 2 0 4-8.5 0.2-17-0.5-3.7-2.8-3-7.5-1.1-5.7 4-8z"/>
	</g>
	<g id="Layer">
		<path id="Layer" fill-rule="evenodd" class="s0" d="m660.5 181.5q7.7-0.6 15 1.5 4.4 7.5-1 14-8.1 1.2-16-0.5-6.6-8.7 2-15zm2 11.5q4.9 1.2 9.5-0.5 1.1-2.9-0.5-5.5-5-0.7-10-0.5-2.3 3.7 1 6.5z"/>
	</g>
	<g id="Layer">
		<path id="Layer" fill-rule="evenodd" class="s0" d="m761.5 181.5q7.7-0.6 15 1.5 5.1 5.6 1.5 12.5-1.1 0.9-2.5 1.5-7.5 1-15 0-4.4-4.9-2.5-11.5 1-2.8 3.5-4zm2 11.5q4.5 1 9 0 3.2-2.6 1-6-5-0.7-10-0.5-1.9 3.3 0 6.5z"/>
	</g>
	<g id="Layer">
		<path id="Layer" fill-rule="evenodd" class="s0" d="m798.5 181.5q2.5-0.2 5 0.5 2.6 4.9 5.5 9.5 3.4-4.6 6.5-9.5 2.5-0.7 5-0.5 0 8 0 16-2.5 0-5 0 0.6-11-3-1-2.9 1.7-6 0.5-4.5-10.9-4 0.5-2 0-4 0 0-8 0-16z"/>
	</g>
	<g id="Layer">
		<path id="Layer" fill-rule="evenodd" class="s0" d="m840.5 181.5q9-0.2 18 0.5 1.3 2 1 4.5-7.5-0.2-15 0.5 5 0.7 10 0.5 0 2 0 4-5.1-0.5-10 1 7.4 1.5 15 1 0.3 2-1 3.5-9 0.7-18 0.5 0-8 0-16z"/>
	</g>
	<g id="Layer">
		<path id="Layer" fill-rule="evenodd" class="s0" d="m878.5 181.5q9.1 2.5 15.5 10 0.7-5 0.5-10 2.5-0.3 4.5 1 0.7 7.5 0.5 15-3 0.2-6-0.5-5.2-4-10-8.5-1.5 4.4-1 9-2 0-4 0 0-8 0-16z"/>
	</g>
	<g id="Layer">
		<path id="Layer" fill-rule="evenodd" class="s0" d="m919.5 181.5q2.5 0 5 0 0 8 0 16-2.5 0-5 0 0-8 0-16z"/>
	</g>
	<g id="Layer">
		<path id="Layer" fill-rule="evenodd" class="s0" d="m945.5 181.5q2 0 4 0-0.2 5.5 0.5 11 5.5 2 11 0 0.7-5.5 0.5-11 2 0 4 0 0.2 7.5-0.5 15-9.1 1.7-18.5 0.5-0.8-0.8-1.5-1.5-1.2-7.1 0.5-14z"/>
	</g>
	<g id="Layer">
		<path id="Layer" fill-rule="evenodd" class="s0" d="m987.5 181.5q9-0.2 18 0.5 1.3 2 1 4.5-8-0.2-16 0.5 7 0.5 14 1 4 4.5 0 9-9.5 0.7-19 0.5 0-2 0-4 8.1 0.5 16-1-7.5-1.2-15-1.5-2.2-5.1 1-9.5z"/>
	</g>
</svg>