<?xml version="1.0" encoding="UTF-8"?>
<!DOCTYPE svg PUBLIC "-//W3C//DTD SVG 1.1//EN" "http://www.w3.org/Graphics/SVG/1.1/DTD/svg11.dtd">
<svg xmlns="http://www.w3.org/2000/svg" version="1.1" width="1100px" height="1100px" style="shape-rendering:geometricPrecision; text-rendering:geometricPrecision; image-rendering:optimizeQuality; fill-rule:evenodd; clip-rule:evenodd" xmlns:xlink="http://www.w3.org/1999/xlink">
<g><path style="opacity:1" fill="#fefffe" d="M 85.5,529.5 C 83.742,529.877 82.0754,530.544 80.5,531.5C 79.3384,526.869 79.1717,522.202 80,517.5C 81.1217,515.376 82.6217,513.543 84.5,512C 105.833,499.667 127.167,487.333 148.5,475C 153.274,471.584 157.774,471.75 162,475.5C 170.247,490.33 178.747,504.997 187.5,519.5C 187.333,519.833 187.167,520.167 187,520.5C 184.867,518.147 182.2,517.147 179,517.5C 168.841,518.658 158.674,518.658 148.5,517.5C 143.777,517.521 139.111,518.021 134.5,519C 116.455,543.589 98.2886,568.089 80,592.5C 79.0761,585.392 79.4094,578.392 81,571.5C 90.9525,559.759 100.786,547.926 110.5,536C 109.833,535.333 109.167,535.333 108.5,536C 99.3037,545.53 89.8037,554.697 80,563.5C 79.3333,559.167 79.3333,554.833 80,550.5C 86.0711,544.551 92.2378,538.718 98.5,533C 91.9061,536.212 85.7394,540.379 80,545.5C 79.3333,541.833 79.3333,538.167 80,534.5C 82.1906,533.167 84.024,531.5 85.5,529.5 Z M 88.5,527.5 C 88.0269,528.906 87.0269,529.573 85.5,529.5C 85.9731,528.094 86.9731,527.427 88.5,527.5 Z"/></g>
<g><path style="opacity:1" fill="#fefffe" d="M 172.5,478.5 C 173.251,477.427 174.251,477.26 175.5,478C 179.916,480.958 184.416,483.792 189,486.5C 195.333,503.833 201.667,521.167 208,538.5C 205.228,523.24 201.728,508.073 197.5,493C 197.833,492.5 198.167,492 198.5,491.5C 202.258,493.461 205.758,495.795 209,498.5C 211.333,509.167 213.667,519.833 216,530.5C 215.858,520.917 215.025,511.417 213.5,502C 216.778,501.883 219.611,503.05 222,505.5C 223.372,511.77 224.372,518.104 225,524.5C 225.333,518.833 225.667,513.167 226,507.5C 231.238,509.747 235.571,513.08 239,517.5C 239.667,546.167 239.667,574.833 239,603.5C 237.992,605.259 236.492,606.426 234.5,607C 216.856,606.769 199.189,606.435 181.5,606C 183.329,605.727 184.829,604.893 186,603.5C 190.91,593.34 196.577,583.674 203,574.5C 205.253,570.497 207.086,566.33 208.5,562C 196.869,533.915 184.869,506.081 172.5,478.5 Z"/></g>
<g><path style="opacity:0.94" fill="#fefffe" d="M 670.5,522.5 C 700.929,527.791 711.095,545.124 701,574.5C 696.527,581.656 690.36,586.489 682.5,589C 680.888,589.72 679.388,589.554 678,588.5C 677.097,589.701 675.931,590.535 674.5,591C 664.024,592.233 653.69,592.233 643.5,591C 620.154,585.68 610.654,571.18 615,547.5C 619.062,534.445 627.896,526.612 641.5,524C 651.342,523.83 661.009,523.33 670.5,522.5 Z M 649.5,545.5 C 656.175,545.334 662.842,545.5 669.5,546C 674.695,548.166 677.362,552.166 677.5,558C 677.174,560.663 676.341,563.163 675,565.5C 671.613,567.112 668.446,569.112 665.5,571.5C 660.553,570.717 655.553,570.217 650.5,570C 647.734,568.533 645.234,566.7 643,564.5C 642.333,559.5 642.333,554.5 643,549.5C 645.438,548.432 647.605,547.098 649.5,545.5 Z"/></g>
<g><path style="opacity:0.998" fill="#fefffe" d="M 135.5,523.5 C 151.837,523.333 168.17,523.5 184.5,524C 185.833,528.333 185.833,532.667 184.5,537C 178.509,537.499 172.509,537.666 166.5,537.5C 166.215,539.288 166.548,540.955 167.5,542.5C 175.054,545.358 181.221,550.024 186,556.5C 186.982,557.759 187.315,559.092 187,560.5C 183.088,563.541 178.921,566.208 174.5,568.5C 171.939,566.36 169.605,564.027 167.5,561.5C 166.67,567.472 166.17,573.472 166,579.5C 165.5,580 165,580.5 164.5,581C 160.245,581.796 156.079,581.629 152,580.5C 151.831,574.141 151.331,567.807 150.5,561.5C 144.964,567.482 144.13,574.149 148,581.5C 154.454,588.189 161.621,589.022 169.5,584C 170.826,581.842 172.493,580.008 174.5,578.5C 178.881,580.684 182.881,583.35 186.5,586.5C 174.204,604.074 158.871,607.241 140.5,596C 125.38,579.393 126.047,563.393 142.5,548C 145.309,546.259 148.309,545.092 151.5,544.5C 151.5,542.167 151.5,539.833 151.5,537.5C 146.156,537.666 140.823,537.499 135.5,537C 134.194,532.501 134.194,528.001 135.5,523.5 Z"/></g>
<g><path style="opacity:0.978" fill="#fefffe" d="M 252.5,523.5 C 279.835,523.333 307.169,523.5 334.5,524C 335.701,524.903 336.535,526.069 337,527.5C 337.667,533.167 337.667,538.833 337,544.5C 336.535,545.931 335.701,547.097 334.5,548C 325.84,548.5 317.173,548.666 308.5,548.5C 307.991,561.806 307.825,575.14 308,588.5C 306.833,589.667 305.667,590.833 304.5,592C 296.833,592.667 289.167,592.667 281.5,592C 280.667,591.167 279.833,590.333 279,589.5C 278.702,578.322 278.202,567.156 277.5,556C 277.565,553.775 277.898,551.608 278.5,549.5C 269.852,548.668 261.186,548.168 252.5,548C 249.177,545.16 247.511,541.493 247.5,537C 248.218,533.539 248.718,530.039 249,526.5C 250.145,525.364 251.312,524.364 252.5,523.5 Z"/></g>
<g><path style="opacity:0.968" fill="#fefffe" d="M 451.5,523.5 C 463.171,523.333 474.838,523.5 486.5,524C 496.066,525.875 503.899,530.708 510,538.5C 511.788,541.748 512.955,545.248 513.5,549C 512.899,550.605 511.899,551.938 510.5,553C 503.167,553.667 495.833,553.667 488.5,553C 485.833,551 483.167,549 480.5,547C 471.582,544.688 462.915,545.354 454.5,549C 450.673,554.309 450.506,559.809 454,565.5C 460.576,569.281 467.742,570.448 475.5,569C 480.2,567.987 484.2,565.654 487.5,562C 495.108,560.811 502.774,560.811 510.5,562C 513.557,564.572 514.057,567.738 512,571.5C 508.082,579.752 501.916,585.585 493.5,589C 480.313,591.469 466.979,592.136 453.5,591C 429.122,585.551 419.622,570.384 425,545.5C 426.922,539.57 430.422,534.737 435.5,531C 440.822,528.193 446.156,525.693 451.5,523.5 Z"/></g>
<g><path style="opacity:0.993" fill="#fefffe" d="M 574.5,547.5 C 576.067,550.283 577.9,552.949 580,555.5C 580.821,548.654 580.654,541.987 579.5,535.5C 579.997,531.855 580.997,528.355 582.5,525C 590.743,522.959 598.91,523.126 607,525.5C 608.914,547.396 608.747,569.229 606.5,591C 597.5,591.667 588.5,591.667 579.5,591C 568.226,578.97 557.06,566.803 546,554.5C 545.36,565.073 544.526,575.573 543.5,586C 545.947,587.229 546.113,588.729 544,590.5C 536.246,591.647 528.413,591.814 520.5,591C 520,590.5 519.5,590 519,589.5C 518.333,568.5 518.333,547.5 519,526.5C 519.5,526 520,525.5 520.5,525C 531.244,523.676 542.244,523.676 553.5,525C 559.708,531.539 565.541,538.373 571,545.5C 571.816,546.823 572.983,547.489 574.5,547.5 Z M 579.5,535.5 C 580.654,541.987 580.821,548.654 580,555.5C 577.9,552.949 576.067,550.283 574.5,547.5C 575.018,543.117 576.685,539.117 579.5,535.5 Z"/></g>
<g><path style="opacity:0.951" fill="#fefffe" d="M 828.5,523.5 C 840.79,523.846 853.124,524.012 865.5,524C 888.665,531.483 896.832,547.316 890,571.5C 886.644,579.38 881.144,584.38 873.5,586.5C 870.238,588.834 866.572,590.334 862.5,591C 852.167,591.667 841.833,591.667 831.5,591C 829.797,588.432 827.631,587.932 825,589.5C 809.29,584.623 801.457,573.956 801.5,557.5C 801.339,548.059 804.339,539.892 810.5,533C 816.207,528.983 822.207,525.816 828.5,523.5 Z M 836.5,545.5 C 843.508,545.334 850.508,545.5 857.5,546C 862.637,548.264 864.971,552.264 864.5,558C 864.637,564.405 861.637,568.405 855.5,570C 850.115,570.214 844.781,570.714 839.5,571.5C 837.758,569.183 835.424,567.683 832.5,567C 831.667,566.167 830.833,565.333 830,564.5C 829.333,559.833 829.333,555.167 830,550.5C 832.071,548.563 834.238,546.896 836.5,545.5 Z"/></g>
<g><path style="opacity:0.948" fill="#fefffe" d="M 926.5,523.5 C 929.075,524.568 931.242,526.235 933,528.5C 939.977,537.644 947.143,546.644 954.5,555.5C 963.022,545.479 971.356,535.312 979.5,525C 987.549,524.803 995.549,524.303 1003.5,523.5C 1005.88,523.118 1008.21,523.618 1010.5,525C 1011.13,525.75 1011.63,526.584 1012,527.5C 1012.67,547.833 1012.67,568.167 1012,588.5C 1011.17,589.333 1010.33,590.167 1009.5,591C 1001.83,591.667 994.167,591.667 986.5,591C 985.667,590.167 984.833,589.333 984,588.5C 983.667,579.167 983.333,569.833 983,560.5C 975.5,570.667 968,580.833 960.5,591C 956.5,591.667 952.5,591.667 948.5,591C 941.384,580.882 933.884,571.049 926,561.5C 925.667,570.5 925.333,579.5 925,588.5C 924.167,589.333 923.333,590.167 922.5,591C 914.5,591.667 906.5,591.667 898.5,591C 897.874,590.25 897.374,589.416 897,588.5C 896.333,568.167 896.333,547.833 897,527.5C 897.374,526.584 897.874,525.75 898.5,525C 908.009,524.83 917.342,524.33 926.5,523.5 Z"/></g>
<g><path style="opacity:0.959" fill="#fefffe" d="M 343.5,524.5 C 368.169,524.333 392.836,524.5 417.5,525C 418.833,531 418.833,537 417.5,543C 401.17,543.5 384.837,543.667 368.5,543.5C 368.5,544.833 368.5,546.167 368.5,547.5C 384.17,547.333 399.837,547.5 415.5,548C 416.416,548.374 417.25,548.874 418,549.5C 418.804,554.751 418.637,559.918 417.5,565C 401.5,565.333 385.5,565.667 369.5,566C 368.594,567.699 368.261,569.533 368.5,571.5C 384.503,571.333 400.503,571.5 416.5,572C 417,572.5 417.5,573 418,573.5C 418.667,578.833 418.667,584.167 418,589.5C 417.5,590 417,590.5 416.5,591C 392.5,591.667 368.5,591.667 344.5,591C 343.426,590.261 342.759,589.261 342.5,588C 342.338,567.156 342.672,545.989 343.5,524.5 Z"/></g>
<g><path style="opacity:1" fill="#fefffe" d="M 735.5,524.5 C 747.572,524.672 759.572,524.838 771.5,525C 775.704,526.239 780.037,527.906 784.5,530C 791.721,534.87 796.055,541.536 797.5,550C 796.672,550.915 795.672,551.581 794.5,552C 787.5,552.667 780.5,552.667 773.5,552C 763.113,543.377 751.78,542.044 739.5,548C 735.224,552.892 734.39,558.392 737,564.5C 739.503,567.527 742.67,569.36 746.5,570C 756.627,572.443 765.293,570.109 772.5,563C 780.188,562.169 787.855,562.335 795.5,563.5C 796.15,574.07 791.483,581.57 781.5,586C 772.829,589.905 763.663,591.405 754,590.5C 748.833,590.333 743.667,590.167 738.5,590C 737.354,589.355 736.354,588.522 735.5,587.5C 733.902,588.485 732.235,588.651 730.5,588C 725.704,585.449 721.037,582.615 716.5,579.5C 714.67,576.509 712.837,573.509 711,570.5C 710.333,561.5 710.333,552.5 711,543.5C 713.444,538.954 716.611,534.954 720.5,531.5C 725.582,529.047 730.582,526.714 735.5,524.5 Z"/></g>
<g><path style="opacity:1" fill="#fefffe" d="M 108.5,559.5 C 108.154,561.753 108.654,564.087 110,566.5C 118.042,579.418 126.208,592.251 134.5,605C 165.145,608.565 195.811,612.065 226.5,615.5C 221.224,619.304 215.557,622.304 209.5,624.5C 191.539,621.386 173.539,618.886 155.5,617C 170.934,621.025 186.267,625.358 201.5,630C 198.125,632.686 194.459,634.853 190.5,636.5C 181.222,633.457 171.888,630.957 162.5,629C 170.219,632.405 177.885,635.905 185.5,639.5C 183.062,641.804 180.229,643.47 177,644.5C 173.981,642.822 170.815,641.989 167.5,642C 169.996,643.08 172.33,644.414 174.5,646C 169.075,652.014 162.408,654.014 154.5,652C 132.994,639.746 111.328,627.746 89.5,616C 83.8216,614.143 81.655,610.309 83,604.5C 91.5119,589.473 100.012,574.473 108.5,559.5 Z"/></g>
<g><path style="opacity:0.939" fill="#fefffe" d="M 278.5,616.5 C 285.175,616.334 291.842,616.5 298.5,617C 300.602,618.733 300.935,620.733 299.5,623C 296.854,623.497 294.187,623.664 291.5,623.5C 291.665,626.85 291.498,630.183 291,633.5C 288.733,634.935 286.733,634.602 285,632.5C 284.502,629.518 284.335,626.518 284.5,623.5C 277.073,625.097 275.073,622.763 278.5,616.5 Z"/></g>
<g><path style="opacity:0.771" fill="#fefffe" d="M 318.5,616.5 C 324.176,616.334 329.843,616.501 335.5,617C 338.586,620.51 337.919,622.677 333.5,623.5C 333.714,625.144 333.38,626.644 332.5,628C 337.136,627.953 338.469,629.953 336.5,634C 330.167,634.667 323.833,634.667 317.5,634C 316.363,628.918 316.196,623.751 317,618.5C 317.717,617.956 318.217,617.289 318.5,616.5 Z"/></g>
<g><path style="opacity:0.779" fill="#fefffe" d="M 359.5,616.5 C 364.511,616.334 369.511,616.501 374.5,617C 376.602,618.733 376.935,620.733 375.5,623C 370.511,623.499 365.511,623.666 360.5,623.5C 360.286,625.144 360.62,626.644 361.5,628C 366.167,628.333 370.833,628.667 375.5,629C 376.833,630.667 376.833,632.333 375.5,634C 369.5,634.667 363.5,634.667 357.5,634C 351.65,627.305 352.317,621.471 359.5,616.5 Z"/></g>
<g><path style="opacity:0.807" fill="#fefffe" d="M 394.5,616.5 C 396.199,616.34 397.866,616.506 399.5,617C 402.965,619.463 406.131,622.296 409,625.5C 409.333,622.833 409.667,620.167 410,617.5C 412.267,616.065 414.267,616.398 416,618.5C 419.182,636.687 414.182,639.354 401,626.5C 400.667,628.833 400.333,631.167 400,633.5C 398.274,634.576 396.441,634.743 394.5,634C 393.187,628.167 393.187,622.334 394.5,616.5 Z"/></g>
<g><path style="opacity:0.72" fill="#fefffe" d="M 556.5,616.5 C 562.093,616.193 567.593,616.527 573,617.5C 573.445,622.916 573.278,628.416 572.5,634C 566.833,634.667 561.167,634.667 555.5,634C 551.633,630.34 550.466,625.84 552,620.5C 553.397,618.93 554.897,617.596 556.5,616.5 Z M 558.5,623.5 C 559.239,623.369 559.906,623.536 560.5,624C 559.783,625.652 559.45,627.152 559.5,628.5C 557.296,627.218 556.962,625.551 558.5,623.5 Z"/></g>
<g><path style="opacity:0.799" fill="#fefffe" d="M 723.5,616.5 C 728.511,616.334 733.511,616.501 738.5,617C 740.602,618.733 740.935,620.733 739.5,623C 734.511,623.499 729.511,623.666 724.5,623.5C 724.286,625.144 724.62,626.644 725.5,628C 730.167,628.333 734.833,628.667 739.5,629C 740.833,630.667 740.833,632.333 739.5,634C 733.5,634.667 727.5,634.667 721.5,634C 715.65,627.305 716.317,621.471 723.5,616.5 Z"/></g>
<g><path style="opacity:1" fill="#fefffe" d="M 438.5,617.5 C 443.628,617.112 448.628,617.612 453.5,619C 456.875,622.762 457.375,626.928 455,631.5C 454.25,632.126 453.416,632.626 452.5,633C 447.5,633.667 442.5,633.667 437.5,633C 434.572,629.743 433.738,625.909 435,621.5C 435.69,619.65 436.856,618.316 438.5,617.5 Z M 440.5,622.5 C 443.85,622.335 447.183,622.502 450.5,623C 451.935,625.267 451.602,627.267 449.5,629C 446.5,629.667 443.5,629.667 440.5,629C 439.232,626.837 439.232,624.67 440.5,622.5 Z"/></g>
<g><path style="opacity:1" fill="#fefffe" d="M 475.5,617.5 C 476.833,617.5 478.167,617.5 479.5,617.5C 479.5,621.5 479.5,625.5 479.5,629.5C 484.5,629.5 489.5,629.5 494.5,629.5C 494.5,630.833 494.5,632.167 494.5,633.5C 488.167,633.5 481.833,633.5 475.5,633.5C 475.5,628.167 475.5,622.833 475.5,617.5 Z"/></g>
<g><path style="opacity:1" fill="#fefffe" d="M 516.5,617.5 C 521.628,617.112 526.628,617.612 531.5,619C 534.462,623.99 534.128,628.656 530.5,633C 525.113,633.784 519.78,633.618 514.5,632.5C 510.078,626.71 510.745,621.71 516.5,617.5 Z M 517.5,622.5 C 520.85,622.335 524.183,622.502 527.5,623C 528.576,624.726 528.743,626.559 528,628.5C 524.927,629.617 521.76,629.784 518.5,629C 516.316,627.102 515.983,624.936 517.5,622.5 Z"/></g>
<g><path style="opacity:1" fill="#fefffe" d="M 592.5,617.5 C 594.467,617.261 596.301,617.594 598,618.5C 598.499,623.489 598.666,628.489 598.5,633.5C 596.5,633.5 594.5,633.5 592.5,633.5C 592.5,628.167 592.5,622.833 592.5,617.5 Z"/></g>
<g><path style="opacity:1" fill="#fefffe" d="M 621.5,617.5 C 626.833,617.5 632.167,617.5 637.5,617.5C 637.5,619.167 637.5,620.833 637.5,622.5C 632.456,622.173 627.456,622.506 622.5,623.5C 621.047,625.644 621.38,627.477 623.5,629C 628.155,629.499 632.821,629.666 637.5,629.5C 637.5,630.833 637.5,632.167 637.5,633.5C 631.824,633.666 626.157,633.499 620.5,633C 618.051,631.137 617.051,628.637 617.5,625.5C 616.784,621.686 618.118,619.019 621.5,617.5 Z"/></g>
<g><path style="opacity:1" fill="#fefffe" d="M 660.5,617.5 C 665.628,617.112 670.628,617.612 675.5,619C 678.462,623.99 678.128,628.656 674.5,633C 669.113,633.784 663.78,633.618 658.5,632.5C 654.078,626.71 654.745,621.71 660.5,617.5 Z M 661.5,622.5 C 664.85,622.335 668.183,622.502 671.5,623C 672.576,624.726 672.743,626.559 672,628.5C 668.927,629.617 665.76,629.784 662.5,629C 660.316,627.102 659.983,624.936 661.5,622.5 Z"/></g>
<g><path style="opacity:1" fill="#fefffe" d="M 761.5,617.5 C 766.628,617.112 771.628,617.612 776.5,619C 779.875,622.762 780.375,626.928 778,631.5C 777.25,632.126 776.416,632.626 775.5,633C 770.5,633.667 765.5,633.667 760.5,633C 757.572,629.743 756.738,625.909 758,621.5C 758.69,619.65 759.856,618.316 761.5,617.5 Z M 763.5,622.5 C 766.85,622.335 770.183,622.502 773.5,623C 774.935,625.267 774.602,627.267 772.5,629C 769.5,629.667 766.5,629.667 763.5,629C 762.232,626.837 762.232,624.67 763.5,622.5 Z"/></g>
<g><path style="opacity:1" fill="#fefffe" d="M 798.5,617.5 C 800.199,617.34 801.866,617.506 803.5,618C 805.207,621.248 807.04,624.415 809,627.5C 811.29,624.42 813.457,621.253 815.5,618C 817.134,617.506 818.801,617.34 820.5,617.5C 820.5,622.833 820.5,628.167 820.5,633.5C 818.833,633.5 817.167,633.5 815.5,633.5C 815.918,626.139 814.918,625.806 812.5,632.5C 810.579,633.641 808.579,633.808 806.5,633C 803.471,625.753 802.138,625.919 802.5,633.5C 801.167,633.5 799.833,633.5 798.5,633.5C 798.5,628.167 798.5,622.833 798.5,617.5 Z"/></g>
<g><path style="opacity:1" fill="#fefffe" d="M 840.5,617.5 C 846.509,617.334 852.509,617.501 858.5,618C 859.38,619.356 859.714,620.856 859.5,622.5C 854.489,622.334 849.489,622.501 844.5,623C 847.817,623.498 851.15,623.665 854.5,623.5C 854.5,624.833 854.5,626.167 854.5,627.5C 851.102,627.18 847.768,627.513 844.5,628.5C 849.456,629.494 854.456,629.827 859.5,629.5C 859.67,630.822 859.337,631.989 858.5,633C 852.509,633.499 846.509,633.666 840.5,633.5C 840.5,628.167 840.5,622.833 840.5,617.5 Z"/></g>
<g><path style="opacity:1" fill="#fefffe" d="M 878.5,617.5 C 884.564,619.135 889.731,622.468 894,627.5C 894.498,624.183 894.665,620.85 894.5,617.5C 896.144,617.286 897.644,617.62 899,618.5C 899.499,623.489 899.666,628.489 899.5,633.5C 897.473,633.662 895.473,633.495 893.5,633C 890.02,630.354 886.686,627.521 883.5,624.5C 882.516,627.428 882.183,630.428 882.5,633.5C 881.167,633.5 879.833,633.5 878.5,633.5C 878.5,628.167 878.5,622.833 878.5,617.5 Z"/></g>
<g><path style="opacity:1" fill="#fefffe" d="M 919.5,617.5 C 921.167,617.5 922.833,617.5 924.5,617.5C 924.5,622.833 924.5,628.167 924.5,633.5C 922.833,633.5 921.167,633.5 919.5,633.5C 919.5,628.167 919.5,622.833 919.5,617.5 Z"/></g>
<g><path style="opacity:1" fill="#fefffe" d="M 945.5,617.5 C 946.833,617.5 948.167,617.5 949.5,617.5C 949.335,621.182 949.501,624.848 950,628.5C 953.667,629.833 957.333,629.833 961,628.5C 961.499,624.848 961.665,621.182 961.5,617.5C 962.833,617.5 964.167,617.5 965.5,617.5C 965.666,622.511 965.499,627.511 965,632.5C 958.916,633.642 952.749,633.809 946.5,633C 946,632.5 945.5,632 945,631.5C 944.227,626.748 944.393,622.081 945.5,617.5 Z"/></g>
<g><path style="opacity:1" fill="#fefffe" d="M 987.5,617.5 C 993.509,617.334 999.509,617.501 1005.5,618C 1006.38,619.356 1006.71,620.856 1006.5,622.5C 1001.16,622.334 995.823,622.501 990.5,623C 995.167,623.333 999.833,623.667 1004.5,624C 1007.17,627 1007.17,630 1004.5,633C 998.175,633.5 991.842,633.666 985.5,633.5C 985.5,632.167 985.5,630.833 985.5,629.5C 990.875,629.828 996.208,629.495 1001.5,628.5C 996.533,627.671 991.533,627.171 986.5,627C 985.01,623.603 985.344,620.436 987.5,617.5 Z"/></g>
</svg>
