<svg xmlns:dc="http://purl.org/dc/elements/1.1/" xmlns:cc="http://creativecommons.org/ns#" xmlns:rdf="http://www.w3.org/1999/02/22-rdf-syntax-ns#" xmlns:svg="http://www.w3.org/2000/svg" xmlns="http://www.w3.org/2000/svg" xmlns:sodipodi="http://sodipodi.sourceforge.net/DTD/sodipodi-0.dtd" xmlns:inkscape="http://www.inkscape.org/namespaces/inkscape" height="50" viewBox="0 0 200 50" width="200" id="svg2" version="1.1" inkscape:version="0.91 r" sodipodi:docname="logo-white.svg" style="&#10;">
  <metadata id="metadata54">
    <rdf:RDF>
      <cc:Work rdf:about="">
        <dc:format>image/svg+xml</dc:format>
        <dc:type rdf:resource="http://purl.org/dc/dcmitype/StillImage"/>
        <dc:title/>
      </cc:Work>
    </rdf:RDF>
  </metadata>
  <defs id="defs52"/>
  <sodipodi:namedview pagecolor="#ffffff" bordercolor="#666666" borderopacity="1" objecttolerance="10" gridtolerance="10" guidetolerance="10" inkscape:pageopacity="0" inkscape:pageshadow="2" inkscape:window-width="1366" inkscape:window-height="747" id="namedview50" showgrid="false" fit-margin-top="0" fit-margin-left="0" fit-margin-right="0" fit-margin-bottom="0" inkscape:zoom="5.9968623" inkscape:cx="61.979112" inkscape:cy="15.368215" inkscape:window-x="0" inkscape:window-y="21" inkscape:window-maximized="1" inkscape:current-layer="g16"/>
  <mask id="a" fill="#fff">
    <path d="m 0.27706692,0.3548718 3.47594558,0 0,3.4063279 -3.47594558,0 z" id="path5" inkscape:connector-curvature="0" style="fill:#ffffff;fill-rule:evenodd"/>
  </mask>
  <mask id="b" fill="#fff">
    <path d="m 0.20082759,0.3548718 3.45654171,0 0,3.3958539 -3.45654171,0 z" id="path8" inkscape:connector-curvature="0" style="fill:#ffffff;fill-rule:evenodd"/>
  </mask>
  <mask id="c" fill="#fff">
    <path d="m 0.12396198,0.3548718 3.44547642,0 0,3.3935577 -3.44547642,0 z" id="path11" inkscape:connector-curvature="0" style="fill:#ffffff;fill-rule:evenodd"/>
  </mask>
  <mask id="d" fill="#fff">
    <path d="m 0.40787199,0.3548718 3.44923731,0 0,3.4154256 -3.44923731,0 z" id="path14" inkscape:connector-curvature="0" style="fill:#ffffff;fill-rule:evenodd"/>
  </mask>
  <g id="g16" style="fill:none;fill-rule:evenodd" transform="translate(-16.125799,12.131785)">
    <g transform="matrix(1.5654206,0,0,1.5894043,15.928871,-12.783262)" id="g20" style="fill:#ffffff;fill-rule:evenodd">
      <g id="g22">
        <path d="m 0.12579907,8.1618462 0,6.0365128 0,6.036923 c 0,1.908103 0.47806151,3.438359 1.08555453,4.761436 0.5845294,1.284102 0.9331594,1.681231 1.7306244,2.696615 1.1456775,1.459282 3.38526,2.914052 5.2899907,3.542564 2.8011483,0.930872 5.9505093,0.850052 8.6606373,-0.349538 0.326084,-0.141539 0.630039,-0.302359 0.971571,-0.472205 3.407807,-1.657846 6.186409,-5.909334 6.186409,-9.683282 l 0,-6.390975 0,-6.395897 c 0,-0.8258462 -0.858423,-1.7001026 -1.951076,-1.7001026 l -9.973741,0 -9.9733231,0 c -1.1010028,0 -2.02664683,0.8406154 -2.02664683,1.9179487 z m 2.81617893,8.0959998 18.292429,0 0,-7.1753845 -18.292429,0 z m 0,3.835077 0,-1.28 18.292429,0 c 0,1.072821 0.09853,2.829128 -0.364496,3.764923 l -17.6319106,0 C 3.1691094,21.779487 2.941978,21.547692 2.941978,20.092923 Z m 1.5181062,5.044923 15.1881598,0 c -0.09102,0.326154 -1.002467,1.32718 -1.222501,1.502359 -0.280574,0.221539 -0.455515,0.387282 -0.75112,0.604308 -2.945193,2.163282 -7.195974,2.43241 -10.3077578,0.576 C 6.137266,27.088615 5.2491989,26.290667 4.4600842,25.137846 Z" id="path24" inkscape:connector-curvature="0"/>
        <path d="m 0.27706692,1.9940513 c 0,1.0252308 0.75153778,1.681641 1.68511458,1.7620513 C 3.305764,3.8689231 4.4063493,2.0838974 3.2982486,0.87897436 3.0022263,0.55323077 2.5922207,0.38830769 2.1667668,0.35466667 l -0.2425797,0 C 1.0816298,0.41620513 0.27706692,1.0020513 0.27706692,1.9940513" mask="url(#a)" transform="translate(2.087605,0.055385)" id="path26" inkscape:connector-curvature="0"/>
        <path d="m 0.20082759,1.923159 c 0,1.7571282 1.86715381,2.3195897 2.91429631,1.3698461 1.123549,-1.0203077 0.3649134,-2.93825638 -1.0321118,-2.93825638 -0.6145909,0 -0.9795042,0.0475897 -1.43418451,0.52020513 -0.2050028,0.21210255 -0.448,0.65599995 -0.448,1.04820515" mask="url(#b)" transform="translate(7.515377,0.055385)" id="path28" inkscape:connector-curvature="0"/>
        <path d="m 0.12396198,1.8524308 c 0,0.8266666 0.22796645,1.4453333 1.07762162,1.776 C 2.5906759,4.1712 3.9947989,2.7734564 3.4486814,1.4274051 3.1681074,0.73284103 2.6061241,0.40668718 2.0140794,0.35458462 l -0.3039553,0 C 0.89053048,0.42596923 0.12396198,1.0019692 0.12396198,1.8524308" mask="url(#c)" transform="translate(12.94315,0.055385)" id="path30" inkscape:connector-curvature="0"/>
        <path d="m 2.1273946,3.7702974 c 0.4475825,0 0.9636384,-0.2785641 1.214151,-0.5103589 C 4.0170945,2.6363487 4.0170945,1.5405539 3.410019,0.87922051 3.1139966,0.55798974 2.7039911,0.38814359 2.2864701,0.35450256 l -0.2505126,0 C 1.170854,0.41604103 0.34374501,1.0539897 0.41180093,2.1264 0.4648261,3.0802462 1.2848373,3.7702974 2.1273946,3.7702974" mask="url(#d)" transform="translate(17.953402,0.055385)" id="path32" inkscape:connector-curvature="0"/>
      </g>
      <path d="m 56.149066,14.685905 -1.987004,0 c 0,-3.554787 -0.208209,-3.034202 0.715343,-3.159447 0.615884,-0.08168 2.04657,0.06861 2.434025,0.589197 0.348108,0.470486 0.54648,2.57025 -1.162364,2.57025 z M 55.9108,22.880211 c 2.493044,-0.08114 5.165881,-0.676324 5.165881,-3.761713 0,-1.197454 -0.318052,-2.927472 -1.520309,-3.203011 l 0,-0.188957 c 0.944318,-0.250491 1.043778,-2.425946 1.043778,-3.209546 0,-3.003163 -2.950995,-3.5798357 -5.96101,-3.5798357 -0.735016,0 -1.638895,0.024505 -2.324728,0.1317798 -0.834476,0.1252453 -1.271114,0.2624705 -1.271114,1.1914639 l 0,11.403851 c 0,1.15988 1.112088,1.215968 2.274452,1.215968 z M 56.149066,20.341 c -1.231221,0 -1.987004,0.182423 -1.987004,-0.281529 l 0,-3.110439 c 1.808851,0 3.835201,-0.401329 3.835201,1.79373 0,1.103247 -0.735016,1.598238 -1.848197,1.598238 z" id="path34" inkscape:connector-curvature="0"/>
      <path d="m 78.213983,9.908398 c 0,1.868332 -0.159026,11.568304 0.07979,12.58987 0.764526,0.181878 1.659115,0.09366 2.464081,0.09366 0.794036,0 0.566154,-0.65182 0.566154,-2.155852 l 0,-2.822375 c 0.685286,0.05718 0.287995,0.194947 1.131761,0 0.675996,1.298195 1.361283,2.596389 2.047116,3.887504 0.69567,1.379331 0.397291,1.090723 3.34774,1.090723 0.258485,0 0.258485,-0.04356 0.477077,-0.09366 0,-0.983992 -2.49359,-4.470711 -2.752076,-5.542374 0.536644,-0.125246 1.261824,-0.752017 1.560202,-1.178939 0.784746,-1.127752 0.714797,-1.660861 0.714797,-2.953065 0,-5.1595601 -8.236009,-4.0813619 -9.139887,-3.7301306 -0.307669,0.1252452 -0.496751,0.4389029 -0.496751,0.8146386 m 3.298556,5.072432 -0.287995,0 0,-3.096824 c 0,-0.313658 0.15848,-0.257025 0.446475,-0.307123 1.24215,-0.219996 2.961378,0.0245 2.961378,1.529625 0,0.658355 0,1.504577 -1.033395,1.793185 -0.884752,0.237966 -1.191874,0.08114 -2.086463,0.08114" id="path36" inkscape:connector-curvature="0"/>
      <path d="m 104.69031,9.6893277 0,12.6334333 c 0,0.219996 0.25794,0.476477 0.47653,0.476477 l 8.03709,0 c 0.60605,0 0.37762,-1.266611 0.37762,-2.551736 0,-0.219451 -0.14865,-0.37628 -0.37762,-0.37628 l -5.2954,0 0,-2.733614 c 1.09351,0 3.73574,0.113265 4.63962,-0.09366 0.16887,-0.721521 0.0891,-1.304184 0.0891,-2.169465 0,-0.219452 -0.15848,-0.37628 -0.37653,-0.37628 l -4.35217,0 0,-2.639408 c 1.15253,0 4.29206,0.119255 5.20632,-0.09421 0.16887,-0.727511 0.0891,-1.391311 0.0891,-2.2631271 0,-0.219996 -0.14919,-0.3768249 -0.37707,-0.3768249 l -7.75948,0 c -0.28799,0 -0.37707,0.2760841 -0.37707,0.5646927" id="path38" inkscape:connector-curvature="0"/>
      <path d="m 65.140365,9.6893277 c 0,1.9118963 -0.149189,11.9750793 0.09946,13.0097133 0.784746,0.181334 7.907574,0.181334 8.702703,0 0.178153,-0.75855 0.08908,-1.655415 0.08908,-2.451539 0,-0.219452 -0.149189,-0.37628 -0.377618,-0.37628 l -5.394309,0 0,-2.733614 c 1.103344,0 3.834654,0.118711 4.738533,-0.09366 0.168862,-0.721521 0.08962,-1.304184 0.08962,-2.169465 0,-0.219452 -0.159025,-0.37628 -0.377618,-0.37628 l -4.450537,0 0,-2.639408 4.738533,0 c 0.894588,0 0.655776,-0.759095 0.655776,-2.1694653 0,-0.2886086 -0.07924,-0.5646927 -0.377071,-0.5646927 l -7.759478,0 c -0.287995,0 -0.377071,0.2760841 -0.377071,0.5646927" id="path40" inkscape:connector-curvature="0"/>
      <path d="m 28.540595,15.34426 c 0,2.326294 0.348108,3.811811 2.047116,5.49282 1.430686,1.422895 2.979959,1.974519 4.401355,2.043131 l 0.724633,0 c 2.493044,-0.125245 4.450537,-1.591703 4.450537,-2.06219 0,-0.282618 -0.62572,-0.771075 -0.824639,-0.965477 -1.509379,-1.505121 -0.70496,-0.877806 -2.284835,-0.345241 -2.970668,1.003595 -5.21561,-1.215968 -5.21561,-3.310287 l 0,-0.658354 c 0,-2.783712 2.612177,-4.269229 5.195937,-3.291227 1.281497,0.489001 0.903879,1.084188 2.116519,-0.357766 0.198372,-0.237966 0.824093,-0.6638 0.824093,-0.970923 0,-0.432913 -1.172201,-1.172949 -1.579329,-1.3488369 -1.778794,-0.758006 -4.431411,-0.7710751 -6.179056,0.1192553 -1.88809,0.9534976 -3.676721,3.3609286 -3.676721,5.6550956" id="path42" inkscape:connector-curvature="0"/>
      <path d="m 116.61146,15.821281 c 0,4.319871 2.97066,6.764876 6.12003,7.05893 l 1.36074,0 c 0.71534,-0.06262 1.43068,-0.243956 2.08646,-0.545089 0.5361,-0.23851 1.7083,-0.865281 1.7083,-1.517101 0,-0.300588 -1.5296,-1.699523 -1.80776,-1.887391 -0.97383,0.50806 -1.2416,0.846767 -2.56299,0.846767 -4.77843,0 -4.63962,-7.824561 -0.4667,-7.824561 3.10948,0 2.41381,1.892837 3.86417,0.08114 0.3481,-0.432913 0.57653,-0.488456 0.86453,-1.021565 -0.97328,-1.8438282 -3.22861,-1.981598 -5.20578,-1.981598 -3.31823,0 -5.96101,3.191031 -5.96101,6.790471" id="path44" inkscape:connector-curvature="0"/>
      <path d="m 90.880965,9.6893277 c 0,2.7270793 -0.655777,2.1694653 3.496382,2.1694653 0,1.698435 -0.138259,9.836653 0.100006,10.840248 0.764526,0.181334 1.659662,0.100197 2.453698,0.100197 0.287995,0 0.566154,-0.08767 0.566154,-0.382815 l 0,-10.55763 3.129145,0 c 0.59621,0 0.37762,-1.1479 0.37762,-2.3573331 0,-0.219996 -0.15903,-0.3768249 -0.37762,-0.3768249 l -9.368314,0 c -0.297285,0 -0.377071,0.2760841 -0.377071,0.5646927" id="path46" inkscape:connector-curvature="0"/>
      <path d="m 43.383061,9.3694623 0,12.6900657 c 0,0.821173 0.655777,0.563604 2.74224,0.563604 0.218046,0 0.377618,-0.156284 0.377618,-0.375736 l 0,-12.8779337 c 0,-0.6202363 -1.380956,-0.3762803 -2.74224,-0.3762803 -0.218045,0 -0.377618,0.1573734 -0.377618,0.3762803" id="path48" inkscape:connector-curvature="0"/>
    </g>
  </g>
</svg>