<!DOCTYPE svg PUBLIC "-//W3C//DTD SVG 1.1//EN" "http://www.w3.org/Graphics/SVG/1.1/DTD/svg11.dtd">
<!-- Uploaded to: SVG Repo, www.svgrepo.com, Transformed by: SVG Repo Mixer Tools -->
<svg fill="#c9ae55" width="800px" height="800px" viewBox="0 0 1069 1069" style="fill-rule:evenodd;clip-rule:evenodd;stroke-linejoin:round;stroke-miterlimit:2;" version="1.1" xml:space="preserve" xmlns="http://www.w3.org/2000/svg" xmlns:serif="http://www.serif.com/" xmlns:xlink="http://www.w3.org/1999/xlink" stroke="#c9ae55">
<g id="SVGRepo_bgCarrier" stroke-width="0"/>
<g id="SVGRepo_tracerCarrier" stroke-linecap="round" stroke-linejoin="round"/>
<g id="SVGRepo_iconCarrier"> <rect height="1066.67" id="Chip-set" style="fill:none;" width="1066.67" x="1.397" y="0.245"/> <g> <path d="M688.577,148.161l-279.947,0l-0,-64.765c-0,-17.247 -14.003,-31.25 -31.25,-31.25c-17.248,0 -31.25,14.003 -31.25,31.25l-0,64.768c-52.094,0.29 -101.991,21.109 -138.847,57.966c-33.572,33.572 -53.838,77.963 -57.402,124.974l-65.332,0c-17.247,0 -31.25,14.003 -31.25,31.25c0,17.247 14.003,31.25 31.25,31.25l64.765,0l0,279.948l-64.765,-0c-17.247,-0 -31.25,14.002 -31.25,31.25c0,17.247 14.003,31.25 31.25,31.25l65.332,-0c3.564,47.011 23.83,91.402 57.402,124.974c36.856,36.857 86.753,57.676 138.847,57.965l-0,64.768c-0,17.248 14.002,31.25 31.25,31.25c17.247,0 31.25,-14.002 31.25,-31.25l-0,-64.764l279.947,-0l-0,64.764c-0,17.248 14.003,31.25 31.25,31.25c17.247,0 31.25,-14.002 31.25,-31.25l-0,-66.877c41.818,-6.159 80.852,-25.606 111.102,-55.856c33.572,-33.572 53.837,-77.963 57.401,-124.974l65.332,-0c17.248,-0 31.25,-14.003 31.25,-31.25c0,-17.248 -14.002,-31.25 -31.25,-31.25l-64.765,-0l0,-279.948l64.765,0c17.248,0 31.25,-14.003 31.25,-31.25c0,-17.247 -14.002,-31.25 -31.25,-31.25l-65.332,0c-3.564,-47.011 -23.829,-91.402 -57.401,-124.974c-30.25,-30.25 -69.284,-49.697 -111.102,-55.856l-0,-66.878c-0,-17.247 -14.003,-31.25 -31.25,-31.25c-17.247,0 -31.25,14.003 -31.25,31.25l-0,64.765Zm33.654,708.334l-375,-0c-35.915,-0 -70.359,-14.268 -95.754,-39.663c-25.396,-25.396 -39.663,-59.84 -39.663,-95.754c0,-113.06 0,-261.94 0,-375c0,-35.915 14.267,-70.359 39.663,-95.754c25.395,-25.396 59.839,-39.663 95.754,-39.663l374.999,0c35.915,0 70.359,14.267 95.755,39.663c25.395,25.395 39.662,59.839 39.662,95.754l0,375c0,35.914 -14.267,70.358 -39.662,95.754c-25.396,25.395 -59.84,39.663 -95.754,39.663Zm-364.584,-322.917c0,-0 0,29.825 0,62.5c0.001,63.283 51.301,114.583 114.584,114.583c39.191,0 85.809,0 125,0c63.282,0 114.583,-51.3 114.583,-114.583c0,-39.191 0,-85.809 0,-125c-0,-63.283 -51.301,-114.583 -114.583,-114.583c-32.675,-0 -62.5,-0 -62.5,-0c-17.248,-0 -31.25,14.002 -31.25,31.25c-0,17.247 14.002,31.25 31.25,31.25l62.498,-0c28.767,0 52.084,23.318 52.085,52.081c0,0.003 0,125.002 0,125.002c-0.001,28.765 -23.318,52.082 -52.082,52.083c-0.003,0 -125.001,0 -125.001,0c-28.765,-0.001 -52.083,-23.318 -52.084,-52.081c0,-0.004 0,-62.502 0,-62.502c0,-17.248 -14.002,-31.25 -31.25,-31.25c-17.247,-0 -31.25,14.002 -31.25,31.25Zm385.417,-241.407c18.254,0 33.073,14.82 33.073,33.074c0,18.253 -14.819,33.073 -33.073,33.073c-18.254,-0 -33.073,-14.82 -33.073,-33.073c-0,-18.254 14.819,-33.074 33.073,-33.074Z"/> <path d="M920.147,346.078c0.001,-52.491 -20.851,-102.832 -57.968,-139.948c-37.117,-37.117 -87.458,-57.969 -139.949,-57.969c-113.059,0 -261.939,0 -374.999,0c-52.491,0 -102.832,20.852 -139.948,57.969c-37.117,37.116 -57.969,87.457 -57.969,139.948c0,113.06 0,261.94 0,375c-0,52.49 20.852,102.831 57.969,139.948c37.116,37.117 87.457,57.969 139.948,57.969c70.055,-0 147.677,-0 201.797,-0c52.491,-0 102.832,-20.852 139.949,-57.969c49.034,-49.034 124.168,-124.168 173.202,-173.202c37.117,-37.117 57.969,-87.458 57.968,-139.949l0,-201.797Zm-62.5,0l0,201.797c0,35.915 -14.267,70.359 -39.662,95.755c-49.035,49.034 -124.168,124.167 -173.202,173.202c-25.396,25.396 -59.84,39.663 -95.755,39.663c-54.12,-0 -131.742,-0 -201.797,-0c-35.915,-0 -70.359,-14.267 -95.754,-39.663c-25.396,-25.396 -39.663,-59.84 -39.663,-95.754c0,-113.06 0,-261.94 0,-375c0,-35.915 14.267,-70.359 39.663,-95.754c25.395,-25.396 59.839,-39.663 95.754,-39.663l374.999,0c35.915,0 70.359,14.267 95.755,39.663c25.395,25.395 39.662,59.839 39.662,95.754Zm-500,250c0.001,63.283 51.301,114.583 114.584,114.583c39.191,0 85.809,0 125,0c63.282,0 114.583,-51.3 114.583,-114.583c0,-39.191 0,-85.809 0,-125c-0,-63.283 -51.301,-114.583 -114.583,-114.583l-125,-0c-63.283,-0 -114.583,51.3 -114.584,114.583l0,125Zm62.5,0.002l0,-125.002c0.001,-28.765 23.319,-52.083 52.082,-52.083c0.003,-0 125.001,-0 125.001,-0c28.766,0 52.083,23.318 52.084,52.081c0,0.003 0,125.002 0,125.002c-0.001,28.765 -23.318,52.082 -52.082,52.083c-0.003,0 -125.001,0 -125.001,0c-28.765,-0.001 -52.083,-23.318 -52.084,-52.081Z" style="fill-opacity:0.5;"/> </g> </g>
</svg>